<?xml version="1.0" encoding="UTF-8" standalone="no"?>

<!--
Copyright Contributors to the GenevaERS Project. SPDX-License-Identifier: Apache-2.0 (c) Copyright IBM Corporation 2008

Licensed under the Apache License, Version 2.0 (the "License");
you may not use this file except in compliance with the License.
You may obtain a copy of the License at

  http://www.apache.org/licenses/LICENSE-2.0

Unless required by applicable law or agreed to in writing,
software distributed under the License is distributed on an
"AS IS" BASIS, WITHOUT WARRANTIES OR CONDITIONS OF ANY
KIND, either express or implied.  See the License for the
specific language governing permissions and limitations
under the License.
-->

<!DOCTYPE svg PUBLIC "-//W3C//DTD SVG 1.1//EN"
 "http://www.w3.org/Graphics/SVG/1.1/DTD/svg11.dtd">
<!-- Generated by graphviz version 2.38.0 (20140413.2041)
 -->
<!-- Title: RunControlGeneratoFileFlowr Pages: 1 -->
<svg width="914pt" height="955pt"
 viewBox="0.00 0.00 914.00 955.00" xmlns="http://www.w3.org/2000/svg" xmlns:xlink="http://www.w3.org/1999/xlink">
<g id="graph0" class="graph" transform="scale(1 1) rotate(0) translate(4 951)">
<title>RunControlGeneratoFileFlowr</title>
<polygon fill="white" stroke="none" points="-4,4 -4,-951 910,-951 910,4 -4,4"/>
<text text-anchor="middle" x="453" y="-925.4" font-family="Helvetica,sans-Serif" font-size="22.00">Extract Compilers</text>
<g id="clust1" class="cluster"><title>cluster_type</title>
<polygon fill="none" stroke="black" points="101,-771 101,-855 447,-855 447,-771 101,-771"/>
<text text-anchor="middle" x="274" y="-833.4" font-family="Helvetica,sans-Serif" font-size="22.00">Types</text>
</g>
<g id="clust5" class="cluster"><title>cluster_wr</title>
<polygon fill="none" stroke="black" points="502,-661 502,-747 704,-747 704,-661 502,-661"/>
<text text-anchor="middle" x="603" y="-725.4" font-family="Helvetica,sans-Serif" font-size="22.00">Write Statements</text>
</g>
<g id="clust3" class="cluster"><title>cluster_fil</title>
<polygon fill="none" stroke="black" points="15,-662 15,-746 168,-746 168,-662 15,-662"/>
<text text-anchor="middle" x="91.5" y="-724.4" font-family="Helvetica,sans-Serif" font-size="22.00">Filters</text>
</g>
<g id="clust4" class="cluster"><title>cluster_ass</title>
<polygon fill="none" stroke="black" points="176,-662 176,-746 494,-746 494,-662 176,-662"/>
<text text-anchor="middle" x="335" y="-724.4" font-family="Helvetica,sans-Serif" font-size="22.00">Assignments</text>
</g>
<g id="clust7" class="cluster"><title>cluster_comp</title>
<polygon fill="none" stroke="black" points="74,-444 74,-528 220,-528 220,-444 74,-444"/>
<text text-anchor="middle" x="147" y="-506.4" font-family="Helvetica,sans-Serif" font-size="22.00">Comparisons</text>
</g>
<g id="clust6" class="cluster"><title>cluster_arith</title>
<polygon fill="none" stroke="black" points="8,-335 8,-419 247,-419 247,-335 8,-335"/>
<text text-anchor="middle" x="127.5" y="-397.4" font-family="Helvetica,sans-Serif" font-size="22.00">Arithmetic Expressions</text>
</g>
<g id="clust8" class="cluster"><title>cluster_logic</title>
<polygon fill="none" stroke="black" points="144,-553 144,-637 355,-637 355,-553 144,-553"/>
<text text-anchor="middle" x="249.5" y="-615.4" font-family="Helvetica,sans-Serif" font-size="22.00">Logical Expressions</text>
</g>
<g id="clust9" class="cluster"><title>cluster_data</title>
<polygon fill="none" stroke="black" points="17,-226 17,-310 670,-310 670,-226 17,-226"/>
<text text-anchor="middle" x="343.5" y="-288.4" font-family="Helvetica,sans-Serif" font-size="22.00">Data</text>
</g>
<g id="clust10" class="cluster"><title>cluster_func</title>
<polygon fill="none" stroke="black" points="367,-335 367,-419 479,-419 479,-335 367,-335"/>
<text text-anchor="middle" x="423" y="-397.4" font-family="Helvetica,sans-Serif" font-size="22.00">Functions</text>
</g>
<g id="clust2" class="cluster"><title>cluster_progess</title>
<polygon fill="none" stroke="black" points="712,-8 712,-855 898,-855 898,-8 712,-8"/>
<text text-anchor="middle" x="805" y="-833.4" font-family="Helvetica,sans-Serif" font-size="22.00">Progress Colours</text>
</g>
<g id="clust11" class="cluster"><title>cluster_cast</title>
<polygon fill="none" stroke="black" points="288,-117 288,-201 379,-201 379,-117 288,-117"/>
<text text-anchor="middle" x="333.5" y="-179.4" font-family="Helvetica,sans-Serif" font-size="22.00">Casting</text>
</g>
<g id="clust12" class="cluster"><title>cluster_jlt</title>
<polygon fill="none" stroke="black" points="387,-117 387,-201 555,-201 555,-117 387,-117"/>
<text text-anchor="middle" x="471" y="-179.4" font-family="Helvetica,sans-Serif" font-size="22.00">JLT Generation</text>
</g>
<!-- EFC -->
<g id="node1" class="node"><title>EFC</title>
<polygon fill="pink" stroke="pink" points="198.5,-815 109.5,-815 109.5,-779 198.5,-779 198.5,-815"/>
<text text-anchor="middle" x="154" y="-793.3" font-family="Times New Roman,serif" font-size="14.00">Extract Filter</text>
</g>
<!-- SEL -->
<g id="node12" class="node"><title>SEL</title>
<polygon fill="cornsilk" stroke="cornsilk" points="159.5,-706 96.5,-706 96.5,-670 159.5,-670 159.5,-706"/>
<text text-anchor="middle" x="128" y="-684.3" font-family="Times New Roman,serif" font-size="14.00">Select If</text>
</g>
<!-- EFC&#45;&gt;SEL -->
<g id="edge8" class="edge"><title>EFC&#45;&gt;SEL</title>
<path fill="none" stroke="pink" stroke-width="4" d="M147.964,-771.159C146.793,-766.342 145.516,-761.084 144.191,-755.633"/>
<polygon fill="pink" stroke="pink" stroke-width="4" points="147.582,-754.765 141.82,-745.874 140.78,-756.418 147.582,-754.765"/>
</g>
<!-- ECC -->
<g id="node2" class="node"><title>ECC</title>
<polygon fill="pink" stroke="pink" points="321,-815 217,-815 217,-779 321,-779 321,-815"/>
<text text-anchor="middle" x="269" y="-793.3" font-family="Times New Roman,serif" font-size="14.00">Extract Column</text>
</g>
<!-- COLAS -->
<g id="node14" class="node"><title>COLAS</title>
<polygon fill="gold" stroke="gold" points="314,-706 184,-706 184,-670 314,-670 314,-706"/>
<text text-anchor="middle" x="249" y="-684.3" font-family="Times New Roman,serif" font-size="14.00">Column Assignment</text>
</g>
<!-- ECC&#45;&gt;COLAS -->
<g id="edge9" class="edge"><title>ECC&#45;&gt;COLAS</title>
<path fill="none" stroke="pink" stroke-width="4" d="M264.373,-771.247C263.483,-766.486 262.513,-761.293 261.506,-755.907"/>
<polygon fill="pink" stroke="pink" stroke-width="4" points="264.908,-755.061 259.631,-745.874 258.028,-756.347 264.908,-755.061"/>
</g>
<!-- EOC -->
<g id="node3" class="node"><title>EOC</title>
<polygon fill="pink" stroke="pink" points="439,-815 339,-815 339,-779 439,-779 439,-815"/>
<text text-anchor="middle" x="389" y="-793.3" font-family="Times New Roman,serif" font-size="14.00">Extracr Output</text>
</g>
<!-- COLREFASS -->
<g id="node15" class="node"><title>COLREFASS</title>
<polygon fill="pink" stroke="pink" points="486,-706 332,-706 332,-670 486,-670 486,-706"/>
<text text-anchor="middle" x="409" y="-684.3" font-family="Times New Roman,serif" font-size="14.00">Column Ref Assignment</text>
</g>
<!-- EOC&#45;&gt;COLREFASS -->
<g id="edge12" class="edge"><title>EOC&#45;&gt;COLREFASS</title>
<path fill="none" stroke="pink" stroke-width="4" d="M393.627,-771.247C394.517,-766.486 395.487,-761.293 396.494,-755.907"/>
<polygon fill="pink" stroke="pink" stroke-width="4" points="399.972,-756.347 398.369,-745.874 393.092,-755.061 399.972,-756.347"/>
</g>
<!-- WRITE -->
<g id="node16" class="node"><title>WRITE</title>
<polygon fill="pink" stroke="pink" points="695.5,-707 510.5,-707 510.5,-669 695.5,-669 695.5,-707"/>
<text text-anchor="middle" x="603" y="-691.8" font-family="Times New Roman,serif" font-size="14.00">Write Statement</text>
<text text-anchor="middle" x="603" y="-676.8" font-family="Times New Roman,serif" font-size="14.00"> &#160;&#160;&#160;Should we make only here?</text>
</g>
<!-- EOC&#45;&gt;WRITE -->
<g id="edge14" class="edge"><title>EOC&#45;&gt;WRITE</title>
<path fill="none" stroke="pink" stroke-width="4" d="M446.816,-771.067C461.087,-764.66 476.819,-757.376 493.081,-749.404"/>
<polygon fill="pink" stroke="pink" stroke-width="4" points="494.684,-752.516 502.092,-744.941 491.578,-746.243 494.684,-752.516"/>
</g>
<!-- c1 -->
<g id="node4" class="node"><title>c1</title>
<ellipse fill="pink" stroke="pink" cx="805" cy="-797" rx="28.6953" ry="18"/>
<text text-anchor="middle" x="805" y="-793.3" font-family="Times New Roman,serif" font-size="14.00">TBD</text>
</g>
<!-- c2 -->
<g id="node5" class="node"><title>c2</title>
<ellipse fill="beige" stroke="beige" cx="805" cy="-688" rx="35.194" ry="18"/>
<text text-anchor="middle" x="805" y="-684.3" font-family="Times New Roman,serif" font-size="14.00">AST 1</text>
</g>
<!-- c1&#45;&gt;c2 -->
<g id="edge1" class="edge"><title>c1&#45;&gt;c2</title>
<path fill="none" stroke="black" d="M805,-778.809C805,-761.961 805,-736.018 805,-716.339"/>
<polygon fill="black" stroke="black" points="808.5,-716.149 805,-706.149 801.5,-716.149 808.5,-716.149"/>
</g>
<!-- c3 -->
<g id="node6" class="node"><title>c3</title>
<ellipse fill="cornsilk" stroke="cornsilk" cx="805" cy="-579" rx="35.194" ry="18"/>
<text text-anchor="middle" x="805" y="-575.3" font-family="Times New Roman,serif" font-size="14.00">AST 2</text>
</g>
<!-- c2&#45;&gt;c3 -->
<g id="edge2" class="edge"><title>c2&#45;&gt;c3</title>
<path fill="none" stroke="black" d="M805,-669.809C805,-652.961 805,-627.018 805,-607.339"/>
<polygon fill="black" stroke="black" points="808.5,-607.149 805,-597.149 801.5,-607.149 808.5,-607.149"/>
</g>
<!-- c4 -->
<g id="node7" class="node"><title>c4</title>
<ellipse fill="yellow" stroke="yellow" cx="805" cy="-470" rx="35.194" ry="18"/>
<text text-anchor="middle" x="805" y="-466.3" font-family="Times New Roman,serif" font-size="14.00">AST 2</text>
</g>
<!-- c3&#45;&gt;c4 -->
<g id="edge3" class="edge"><title>c3&#45;&gt;c4</title>
<path fill="none" stroke="black" d="M805,-560.809C805,-543.961 805,-518.018 805,-498.339"/>
<polygon fill="black" stroke="black" points="808.5,-498.149 805,-488.149 801.5,-498.149 808.5,-498.149"/>
</g>
<!-- c5 -->
<g id="node8" class="node"><title>c5</title>
<ellipse fill="gold" stroke="gold" cx="805" cy="-361" rx="34.394" ry="18"/>
<text text-anchor="middle" x="805" y="-357.3" font-family="Times New Roman,serif" font-size="14.00">Emit 1</text>
</g>
<!-- c4&#45;&gt;c5 -->
<g id="edge4" class="edge"><title>c4&#45;&gt;c5</title>
<path fill="none" stroke="black" d="M805,-451.809C805,-434.961 805,-409.018 805,-389.339"/>
<polygon fill="black" stroke="black" points="808.5,-389.149 805,-379.149 801.5,-389.149 808.5,-389.149"/>
</g>
<!-- c6 -->
<g id="node9" class="node"><title>c6</title>
<ellipse fill="orange" stroke="orange" cx="805" cy="-252" rx="34.394" ry="18"/>
<text text-anchor="middle" x="805" y="-248.3" font-family="Times New Roman,serif" font-size="14.00">Emit 2</text>
</g>
<!-- c5&#45;&gt;c6 -->
<g id="edge5" class="edge"><title>c5&#45;&gt;c6</title>
<path fill="none" stroke="black" d="M805,-342.809C805,-325.961 805,-300.018 805,-280.339"/>
<polygon fill="black" stroke="black" points="808.5,-280.149 805,-270.149 801.5,-280.149 808.5,-280.149"/>
</g>
<!-- c7 -->
<g id="node10" class="node"><title>c7</title>
<ellipse fill="yellowgreen" stroke="yellowgreen" cx="805" cy="-143" rx="34.394" ry="18"/>
<text text-anchor="middle" x="805" y="-139.3" font-family="Times New Roman,serif" font-size="14.00">Emit 2</text>
</g>
<!-- c6&#45;&gt;c7 -->
<g id="edge6" class="edge"><title>c6&#45;&gt;c7</title>
<path fill="none" stroke="black" d="M805,-233.809C805,-216.961 805,-191.018 805,-171.339"/>
<polygon fill="black" stroke="black" points="808.5,-171.149 805,-161.149 801.5,-171.149 808.5,-171.149"/>
</g>
<!-- c8 -->
<g id="node11" class="node"><title>c8</title>
<ellipse fill="lawngreen" stroke="lawngreen" cx="805" cy="-34" rx="30.5947" ry="18"/>
<text text-anchor="middle" x="805" y="-30.3" font-family="Times New Roman,serif" font-size="14.00">Done</text>
</g>
<!-- c7&#45;&gt;c8 -->
<g id="edge7" class="edge"><title>c7&#45;&gt;c8</title>
<path fill="none" stroke="black" d="M805,-124.809C805,-107.961 805,-82.0183 805,-62.3394"/>
<polygon fill="black" stroke="black" points="808.5,-62.1487 805,-52.1487 801.5,-62.1488 808.5,-62.1487"/>
</g>
<!-- LOGEXP -->
<g id="node19" class="node"><title>LOGEXP</title>
<polygon fill="gold" stroke="gold" points="314,-597 184,-597 184,-561 314,-561 314,-597"/>
<text text-anchor="middle" x="249" y="-575.3" font-family="Times New Roman,serif" font-size="14.00">Logical Expressions</text>
</g>
<!-- SEL&#45;&gt;LOGEXP -->
<g id="edge13" class="edge"><title>SEL&#45;&gt;LOGEXP</title>
<path fill="none" stroke="pink" stroke-width="4" d="M155.922,-662.309C162.509,-656.484 169.831,-650.009 177.392,-643.323"/>
<polygon fill="pink" stroke="pink" stroke-width="4" points="179.896,-645.781 185.069,-636.534 175.259,-640.537 179.896,-645.781"/>
</g>
<!-- SKIP -->
<g id="node13" class="node"><title>SKIP</title>
<polygon fill="pink" stroke="pink" points="78.5,-706 23.5,-706 23.5,-670 78.5,-670 78.5,-706"/>
<text text-anchor="middle" x="51" y="-684.3" font-family="Times New Roman,serif" font-size="14.00">Skip If</text>
</g>
<!-- COLAS&#45;&gt;LOGEXP -->
<g id="edge15" class="edge"><title>COLAS&#45;&gt;LOGEXP</title>
<path fill="none" stroke="pink" stroke-width="4" d="M249,-662.168C249,-657.356 249,-652.104 249,-646.659"/>
<polygon fill="pink" stroke="pink" stroke-width="4" points="252.5,-646.52 249,-636.52 245.5,-646.52 252.5,-646.52"/>
</g>
<!-- WRITE&#45;&gt;LOGEXP -->
<g id="edge20" class="edge"><title>WRITE&#45;&gt;LOGEXP</title>
<path fill="none" stroke="pink" stroke-width="4" d="M517.763,-661.236C471.83,-647.352 414.499,-630.024 364.6,-614.941"/>
<polygon fill="pink" stroke="pink" stroke-width="4" points="365.32,-611.503 354.735,-611.959 363.294,-618.203 365.32,-611.503"/>
</g>
<!-- ARITH -->
<g id="node17" class="node"><title>ARITH</title>
<polygon fill="gold" stroke="gold" points="172,-379 26,-379 26,-343 172,-343 172,-379"/>
<text text-anchor="middle" x="99" y="-357.3" font-family="Times New Roman,serif" font-size="14.00">Arithmetic Expressions</text>
</g>
<!-- COLREF -->
<g id="node26" class="node"><title>COLREF</title>
<polygon fill="pink" stroke="pink" points="110.5,-270 25.5,-270 25.5,-234 110.5,-234 110.5,-270"/>
<text text-anchor="middle" x="68" y="-248.3" font-family="Times New Roman,serif" font-size="14.00">Column Ref</text>
</g>
<!-- ARITH&#45;&gt;COLREF -->
<g id="edge16" class="edge"><title>ARITH&#45;&gt;COLREF</title>
<path fill="none" stroke="pink" stroke-width="4" d="M91.8948,-335.476C90.4642,-330.538 88.8969,-325.128 87.2707,-319.515"/>
<polygon fill="pink" stroke="pink" stroke-width="4" points="90.5739,-318.339 84.4293,-309.708 83.8504,-320.287 90.5739,-318.339"/>
</g>
<!-- COMP -->
<g id="node18" class="node"><title>COMP</title>
<polygon fill="gold" stroke="gold" points="187,-488 95,-488 95,-452 187,-452 187,-488"/>
<text text-anchor="middle" x="141" y="-466.3" font-family="Times New Roman,serif" font-size="14.00">Comparisons</text>
</g>
<!-- COMP&#45;&gt;ARITH -->
<g id="edge11" class="edge"><title>COMP&#45;&gt;ARITH</title>
<path fill="none" stroke="pink" stroke-width="4" d="M131.327,-444.356C129.356,-439.334 127.194,-433.829 124.954,-428.12"/>
<polygon fill="pink" stroke="pink" stroke-width="4" points="128.106,-426.571 121.194,-418.541 121.59,-429.129 128.106,-426.571"/>
</g>
<!-- LOGEXP&#45;&gt;COMP -->
<g id="edge10" class="edge"><title>LOGEXP&#45;&gt;COMP</title>
<path fill="none" stroke="pink" stroke-width="4" d="M223.911,-553.143C218.313,-547.597 212.127,-541.468 205.732,-535.133"/>
<polygon fill="pink" stroke="pink" stroke-width="4" points="207.951,-532.404 198.384,-527.852 203.024,-537.377 207.951,-532.404"/>
</g>
<!-- FUNC -->
<g id="node27" class="node"><title>FUNC</title>
<polygon fill="pink" stroke="pink" points="459,-379 387,-379 387,-343 459,-343 459,-379"/>
<text text-anchor="middle" x="423" y="-357.3" font-family="Times New Roman,serif" font-size="14.00">Functions</text>
</g>
<!-- LOGEXP&#45;&gt;FUNC -->
<g id="edge18" class="edge"><title>LOGEXP&#45;&gt;FUNC</title>
<path fill="none" stroke="pink" stroke-width="4" d="M268.806,-553.414C293.485,-522.777 336.596,-469.26 370.97,-426.589"/>
<polygon fill="pink" stroke="pink" stroke-width="4" points="373.783,-428.676 377.331,-418.693 368.332,-424.285 373.783,-428.676"/>
</g>
<!-- FIELDS -->
<g id="node20" class="node"><title>FIELDS</title>
<polygon fill="gold" stroke="gold" points="662,-270 608,-270 608,-234 662,-234 662,-270"/>
<text text-anchor="middle" x="635" y="-248.3" font-family="Times New Roman,serif" font-size="14.00">Fields</text>
</g>
<!-- CONST -->
<g id="node21" class="node"><title>CONST</title>
<polygon fill="gold" stroke="gold" points="589.5,-270 516.5,-270 516.5,-234 589.5,-234 589.5,-270"/>
<text text-anchor="middle" x="553" y="-248.3" font-family="Times New Roman,serif" font-size="14.00">Constants</text>
</g>
<!-- LOOKUP -->
<g id="node22" class="node"><title>LOOKUP</title>
<polygon fill="pink" stroke="pink" points="381.5,-270 314.5,-270 314.5,-234 381.5,-234 381.5,-270"/>
<text text-anchor="middle" x="348" y="-248.3" font-family="Times New Roman,serif" font-size="14.00">Lookups</text>
</g>
<!-- CAST -->
<g id="node28" class="node"><title>CAST</title>
<polygon fill="pink" stroke="pink" points="370.5,-161 311.5,-161 311.5,-125 370.5,-125 370.5,-161"/>
<text text-anchor="middle" x="341" y="-139.3" font-family="Times New Roman,serif" font-size="14.00">Casting</text>
</g>
<!-- LOOKUP&#45;&gt;CAST -->
<g id="edge17" class="edge"><title>LOOKUP&#45;&gt;CAST</title>
<path fill="none" stroke="pink" stroke-width="4" d="M346.375,-226.168C346.061,-221.356 345.717,-216.104 345.361,-210.659"/>
<polygon fill="pink" stroke="pink" stroke-width="4" points="348.843,-210.27 344.698,-200.52 341.858,-210.727 348.843,-210.27"/>
</g>
<!-- LOOKFLD -->
<g id="node23" class="node"><title>LOOKFLD</title>
<polygon fill="pink" stroke="pink" points="498,-270 400,-270 400,-234 498,-234 498,-270"/>
<text text-anchor="middle" x="449" y="-248.3" font-family="Times New Roman,serif" font-size="14.00">Lookup Fields</text>
</g>
<!-- JLT -->
<g id="node29" class="node"><title>JLT</title>
<polygon fill="pink" stroke="pink" points="515,-161 395,-161 395,-125 515,-125 515,-161"/>
<text text-anchor="middle" x="455" y="-139.3" font-family="Times New Roman,serif" font-size="14.00">JLT data gathering</text>
</g>
<!-- LOOKFLD&#45;&gt;JLT -->
<g id="edge21" class="edge"><title>LOOKFLD&#45;&gt;JLT</title>
<path fill="none" stroke="pink" stroke-width="4" d="M450.392,-226.168C450.662,-221.356 450.957,-216.104 451.262,-210.659"/>
<polygon fill="pink" stroke="pink" stroke-width="4" points="454.765,-210.7 451.831,-200.52 447.776,-210.308 454.765,-210.7"/>
</g>
<!-- ACCUM -->
<g id="node24" class="node"><title>ACCUM</title>
<polygon fill="gold" stroke="gold" points="296.5,-270 201.5,-270 201.5,-234 296.5,-234 296.5,-270"/>
<text text-anchor="middle" x="249" y="-248.3" font-family="Times New Roman,serif" font-size="14.00">Accumulators</text>
</g>
<!-- DATE -->
<g id="node25" class="node"><title>DATE</title>
<polygon fill="pink" stroke="pink" points="183,-270 129,-270 129,-234 183,-234 183,-270"/>
<text text-anchor="middle" x="156" y="-248.3" font-family="Times New Roman,serif" font-size="14.00">Dates</text>
</g>
<!-- FUNC&#45;&gt;CONST -->
<g id="edge19" class="edge"><title>FUNC&#45;&gt;CONST</title>
<path fill="none" stroke="pink" stroke-width="4" d="M471.326,-335.2C480.672,-329.609 490.292,-323.287 499.101,-316.462"/>
<polygon fill="pink" stroke="pink" stroke-width="4" points="501.476,-319.041 507,-310 497.044,-313.623 501.476,-319.041"/>
</g>
</g>
</svg>
