<?xml version="1.0" encoding="UTF-8" standalone="no"?>
<!DOCTYPE svg PUBLIC "-//W3C//DTD SVG 1.1//EN"
 "http://www.w3.org/Graphics/SVG/1.1/DTD/svg11.dtd">
<!-- Generated by graphviz version 8.0.1 (20230327.1645)
 -->
<!-- Title: RunControlGeneratoFileFlowr Pages: 1 -->
<svg width="1046pt" height="474pt"
 viewBox="0.00 0.00 1045.86 473.79" xmlns="http://www.w3.org/2000/svg" xmlns:xlink="http://www.w3.org/1999/xlink">
<g id="graph0" class="graph" transform="scale(1 1) rotate(0) translate(4 469.79)">
<title>RunControlGeneratoFileFlowr</title>
<polygon fill="white" stroke="none" points="-4,4 -4,-469.79 1041.86,-469.79 1041.86,4 -4,4"/>
<text text-anchor="middle" x="518.93" y="-444.19" font-family="Helvetica,sans-Serif" font-size="22.00">Run Control Generator File Flow</text>
<!-- WB -->
<g id="node1" class="node">
<title>WB</title>
<polygon fill="lawngreen" stroke="lawngreen" points="208.39,-309.29 125.39,-309.29 125.39,-226.29 208.39,-226.29 208.39,-309.29"/>
<text text-anchor="middle" x="166.89" y="-264.09" font-family="Times New Roman,serif" font-size="14.00">Workbench</text>
</g>
<!-- WBX -->
<g id="node6" class="node">
<title>WBX</title>
<polygon fill="#bfefff" stroke="#bfefff" points="348.39,-273.79 245.39,-273.79 245.39,-237.79 348.39,-237.79 348.39,-273.79"/>
<text text-anchor="middle" x="296.89" y="-252.09" font-family="Times New Roman,serif" font-size="14.00">WB XML Files</text>
</g>
<!-- WB&#45;&gt;WBX -->
<g id="edge2" class="edge">
<title>WB&#45;&gt;WBX</title>
<path fill="none" stroke="black" d="M208.74,-263.96C216.87,-263.19 225.58,-262.38 234.22,-261.57"/>
<polygon fill="black" stroke="black" points="234.47,-264.97 244.1,-260.55 233.81,-258 234.47,-264.97"/>
</g>
<!-- DB -->
<g id="node2" class="node">
<title>DB</title>
<ellipse fill="tan" stroke="tan" cx="44.2" cy="-209.79" rx="44.39" ry="44.39"/>
<text text-anchor="middle" x="44.2" y="-206.09" font-family="Times New Roman,serif" font-size="14.00">Database</text>
</g>
<!-- DB&#45;&gt;WB -->
<g id="edge1" class="edge">
<title>DB&#45;&gt;WB</title>
<path fill="none" stroke="black" d="M84.72,-228.78C94.51,-233.48 105.14,-238.59 115.38,-243.51"/>
<polygon fill="black" stroke="black" points="113.51,-246.98 124.04,-248.16 116.54,-240.67 113.51,-246.98"/>
</g>
<!-- RCG -->
<g id="node3" class="node">
<title>RCG</title>
<ellipse fill="PaleGreen" stroke="PaleGreen" cx="480.28" cy="-197.79" rx="94.78" ry="18"/>
<text text-anchor="middle" x="480.28" y="-194.09" font-family="Times New Roman,serif" font-size="14.00">Run Control Generator</text>
</g>
<!-- DB&#45;&gt;RCG -->
<g id="edge3" class="edge">
<title>DB&#45;&gt;RCG</title>
<path fill="none" stroke="black" d="M88.81,-208.58C155.23,-206.74 283.66,-203.19 375.09,-200.67"/>
<polygon fill="black" stroke="black" points="375.15,-204.14 385.05,-200.36 374.95,-197.14 375.15,-204.14"/>
</g>
<!-- RPT -->
<g id="node7" class="node">
<title>RPT</title>
<polygon fill="beige" stroke="beige" points="671.68,-381.79 615.68,-381.79 615.68,-345.79 671.68,-345.79 671.68,-381.79"/>
<text text-anchor="middle" x="643.68" y="-360.09" font-family="Times New Roman,serif" font-size="14.00">Report</text>
</g>
<!-- RCG&#45;&gt;RPT -->
<g id="edge6" class="edge">
<title>RCG&#45;&gt;RPT</title>
<path fill="none" stroke="black" d="M497.31,-215.83C521.51,-242.83 569.1,-295.02 612.18,-336.79 612.64,-337.23 613.1,-337.68 613.57,-338.13"/>
<polygon fill="black" stroke="black" points="610.74,-340.2 620.45,-344.44 615.5,-335.07 610.74,-340.2"/>
</g>
<!-- LOG -->
<g id="node8" class="node">
<title>LOG</title>
<polygon fill="beige" stroke="beige" points="670.68,-327.79 616.68,-327.79 616.68,-291.79 670.68,-291.79 670.68,-327.79"/>
<text text-anchor="middle" x="643.68" y="-306.09" font-family="Times New Roman,serif" font-size="14.00">Logs</text>
</g>
<!-- RCG&#45;&gt;LOG -->
<g id="edge7" class="edge">
<title>RCG&#45;&gt;LOG</title>
<path fill="none" stroke="black" d="M505.5,-215.6C528.01,-232.03 562.57,-256.97 593.18,-277.79 597.71,-280.87 602.52,-284.07 607.29,-287.2"/>
<polygon fill="black" stroke="black" points="605.03,-290.55 615.32,-293.07 608.85,-284.69 605.03,-290.55"/>
</g>
<!-- VDP -->
<g id="node9" class="node">
<title>VDP</title>
<polygon fill="pink" stroke="pink" points="670.68,-181.79 616.68,-181.79 616.68,-145.79 670.68,-145.79 670.68,-181.79"/>
<text text-anchor="middle" x="643.68" y="-160.09" font-family="Times New Roman,serif" font-size="14.00">VDP</text>
</g>
<!-- RCG&#45;&gt;VDP -->
<g id="edge8" class="edge">
<title>RCG&#45;&gt;VDP</title>
<path fill="none" stroke="black" d="M545.07,-184.35C565.65,-180.01 587.76,-175.36 605.72,-171.57"/>
<polygon fill="black" stroke="black" points="606.26,-174.82 615.32,-169.34 604.82,-167.97 606.26,-174.82"/>
</g>
<!-- XLT -->
<g id="node10" class="node">
<title>XLT</title>
<polygon fill="pink" stroke="pink" points="670.68,-73.79 616.68,-73.79 616.68,-37.79 670.68,-37.79 670.68,-73.79"/>
<text text-anchor="middle" x="643.68" y="-52.09" font-family="Times New Roman,serif" font-size="14.00">XLT</text>
</g>
<!-- RCG&#45;&gt;XLT -->
<g id="edge9" class="edge">
<title>RCG&#45;&gt;XLT</title>
<path fill="none" stroke="black" d="M501.72,-179.8C530.07,-154.87 581.45,-109.66 613.73,-81.26"/>
<polygon fill="black" stroke="black" points="615.7,-83.31 620.89,-74.07 611.07,-78.05 615.7,-83.31"/>
</g>
<!-- JLT -->
<g id="node11" class="node">
<title>JLT</title>
<polygon fill="pink" stroke="pink" points="670.68,-235.79 616.68,-235.79 616.68,-199.79 670.68,-199.79 670.68,-235.79"/>
<text text-anchor="middle" x="643.68" y="-214.09" font-family="Times New Roman,serif" font-size="14.00">JLT</text>
</g>
<!-- RCG&#45;&gt;JLT -->
<g id="edge10" class="edge">
<title>RCG&#45;&gt;JLT</title>
<path fill="none" stroke="black" d="M560.56,-207.61C576.26,-209.56 592.02,-211.51 605.48,-213.18"/>
<polygon fill="black" stroke="black" points="604.84,-216.75 615.2,-214.51 605.7,-209.8 604.84,-216.75"/>
</g>
<!-- TRC -->
<g id="node12" class="node">
<title>TRC</title>
<polygon fill="beige" stroke="beige" points="675.18,-127.79 612.18,-127.79 612.18,-91.79 675.18,-91.79 675.18,-127.79"/>
<text text-anchor="middle" x="643.68" y="-106.09" font-family="Times New Roman,serif" font-size="14.00">TRACE</text>
</g>
<!-- RCG&#45;&gt;TRC -->
<g id="edge11" class="edge">
<title>RCG&#45;&gt;TRC</title>
<path fill="none" stroke="red" stroke-dasharray="5,2" d="M512.78,-180.61C538.39,-166.65 574.67,-146.87 602.39,-131.75"/>
<polygon fill="red" stroke="red" points="603.7,-134.48 610.8,-126.62 600.35,-128.33 603.7,-134.48"/>
</g>
<!-- CSV -->
<g id="node13" class="node">
<title>CSV</title>
<polygon fill="beige" stroke="beige" points="1033.86,-252.79 979.86,-252.79 979.86,-216.79 1033.86,-216.79 1033.86,-252.79"/>
<text text-anchor="middle" x="1006.86" y="-231.09" font-family="Times New Roman,serif" font-size="14.00">CSVs</text>
</g>
<!-- RCG&#45;&gt;CSV -->
<g id="edge17" class="edge">
<title>RCG&#45;&gt;CSV</title>
<path fill="none" stroke="red" stroke-dasharray="5,2" d="M517.87,-214.78C543.62,-225.76 579.23,-239.05 612.18,-244.79 741.97,-267.38 899.41,-250.3 969.35,-240.46"/>
<polygon fill="red" stroke="red" points="969.41,-243.85 978.81,-238.96 968.41,-236.92 969.41,-243.85"/>
<text text-anchor="middle" x="716.68" y="-258.59" font-family="Times New Roman,serif" font-size="14.00">possible</text>
</g>
<!-- HTM -->
<g id="node14" class="node">
<title>HTM</title>
<polygon fill="beige" stroke="beige" points="1037.86,-72.79 975.86,-72.79 975.86,-36.79 1037.86,-36.79 1037.86,-72.79"/>
<text text-anchor="middle" x="1006.86" y="-51.09" font-family="Times New Roman,serif" font-size="14.00">HTMLs</text>
</g>
<!-- RCG&#45;&gt;HTM -->
<g id="edge18" class="edge">
<title>RCG&#45;&gt;HTM</title>
<path fill="none" stroke="red" stroke-dasharray="5,2" d="M488.72,-179.57C504.84,-142.86 546.87,-60.81 612.18,-28.79 729.56,28.77 890.74,-13.95 965.17,-39.41"/>
<polygon fill="red" stroke="red" points="963.91,-43.03 974.5,-43.03 966.22,-36.42 963.91,-43.03"/>
<text text-anchor="middle" x="716.68" y="-8.59" font-family="Times New Roman,serif" font-size="14.00">possible</text>
</g>
<!-- RCA -->
<g id="node4" class="node">
<title>RCA</title>
<ellipse fill="Green" stroke="Green" cx="848.52" cy="-163.79" rx="90.18" ry="18"/>
<text text-anchor="middle" x="848.52" y="-160.09" font-family="Times New Roman,serif" font-size="14.00">Run Control Analyzer</text>
</g>
<!-- RCA&#45;&gt;CSV -->
<g id="edge15" class="edge">
<title>RCA&#45;&gt;CSV</title>
<path fill="none" stroke="black" d="M886.17,-180.43C911.4,-191.89 944.75,-207.03 969.84,-218.43"/>
<polygon fill="black" stroke="black" points="968.14,-221.96 978.69,-222.9 971.03,-215.58 968.14,-221.96"/>
</g>
<!-- RCA&#45;&gt;HTM -->
<g id="edge16" class="edge">
<title>RCA&#45;&gt;HTM</title>
<path fill="none" stroke="black" d="M874.64,-146.27C900.69,-128.11 941.62,-99.58 970.83,-79.21"/>
<polygon fill="black" stroke="black" points="972.3,-81.76 978.5,-73.17 968.29,-76.01 972.3,-81.76"/>
</g>
<!-- RCP -->
<g id="node5" class="node">
<title>RCP</title>
<polygon fill="#bfefff" stroke="#bfefff" points="323.89,-169.79 269.89,-169.79 269.89,-133.79 323.89,-133.79 323.89,-169.79"/>
<text text-anchor="middle" x="296.89" y="-148.09" font-family="Times New Roman,serif" font-size="14.00">Parm</text>
</g>
<!-- RCP&#45;&gt;RCG -->
<g id="edge4" class="edge">
<title>RCP&#45;&gt;RCG</title>
<path fill="none" stroke="black" d="M324.27,-158.48C347.03,-164.25 380.94,-172.85 411.24,-180.53"/>
<polygon fill="black" stroke="black" points="410.23,-184.14 420.78,-183.2 411.95,-177.35 410.23,-184.14"/>
</g>
<!-- WBX&#45;&gt;RCG -->
<g id="edge5" class="edge">
<title>WBX&#45;&gt;RCG</title>
<path fill="none" stroke="black" d="M348.42,-239.63C370.6,-232.54 396.8,-224.16 419.91,-216.77"/>
<polygon fill="black" stroke="black" points="420.82,-219.84 429.28,-213.46 418.69,-213.17 420.82,-219.84"/>
</g>
<!-- VDP&#45;&gt;RCA -->
<g id="edge12" class="edge">
<title>VDP&#45;&gt;RCA</title>
<path fill="none" stroke="black" d="M670.78,-163.79C690.51,-163.79 718.96,-163.79 747.29,-163.79"/>
<polygon fill="black" stroke="black" points="747.12,-167.29 757.12,-163.79 747.12,-160.29 747.12,-167.29"/>
</g>
<!-- XLT&#45;&gt;RCA -->
<g id="edge13" class="edge">
<title>XLT&#45;&gt;RCA</title>
<path fill="none" stroke="black" d="M670.78,-69.68C704.98,-87.89 765.36,-120.04 805.91,-141.63"/>
<polygon fill="black" stroke="black" points="804.03,-145.13 814.5,-146.74 807.32,-138.95 804.03,-145.13"/>
</g>
<!-- JLT&#45;&gt;RCA -->
<g id="edge14" class="edge">
<title>JLT&#45;&gt;RCA</title>
<path fill="none" stroke="black" d="M670.78,-210.84C698.85,-203.36 744.55,-191.2 782.45,-181.11"/>
<polygon fill="black" stroke="black" points="783.15,-184.28 791.91,-178.32 781.35,-177.51 783.15,-184.28"/>
</g>
</g>
</svg>
