<?xml version="1.0" encoding="UTF-8" standalone="no"?>

<!--
Copyright Contributors to the GenevaERS Project. SPDX-License-Identifier: Apache-2.0 (c) Copyright IBM Corporation 2008

Licensed under the Apache License, Version 2.0 (the "License");
you may not use this file except in compliance with the License.
You may obtain a copy of the License at

  http://www.apache.org/licenses/LICENSE-2.0

Unless required by applicable law or agreed to in writing,
software distributed under the License is distributed on an
"AS IS" BASIS, WITHOUT WARRANTIES OR CONDITIONS OF ANY
KIND, either express or implied.  See the License for the
specific language governing permissions and limitations
under the License.
-->

<!DOCTYPE svg PUBLIC "-//W3C//DTD SVG 1.1//EN"
 "http://www.w3.org/Graphics/SVG/1.1/DTD/svg11.dtd">
<!-- Generated by graphviz version 2.38.0 (20140413.2041)
 -->
<!-- Title: VDP_Record_Flow Pages: 1 -->
<svg width="654pt" height="206pt"
 viewBox="0.00 0.00 653.85 206.00" xmlns="http://www.w3.org/2000/svg" xmlns:xlink="http://www.w3.org/1999/xlink">
<g id="graph0" class="graph" transform="scale(1 1) rotate(0) translate(4 202)">
<title>VDP_Record_Flow</title>
<polygon fill="white" stroke="none" points="-4,4 -4,-202 649.855,-202 649.855,4 -4,4"/>
<g id="clust1" class="cluster"><title>cluster_cg</title>
<polygon fill="none" stroke="black" points="102,-73 102,-148 434.89,-148 434.89,-73 102,-73"/>
<text text-anchor="middle" x="268.445" y="-132.8" font-family="Times New Roman,serif" font-size="14.00">Component Generator</text>
</g>
<!-- yamlReader -->
<g id="node1" class="node"><title>yamlReader</title>
<ellipse fill="pink" stroke="pink" cx="163.945" cy="-99" rx="53.8905" ry="18"/>
<text text-anchor="middle" x="163.945" y="-95.3" font-family="Times New Roman,serif" font-size="14.00">yamlReader</text>
</g>
<!-- classes -->
<g id="node2" class="node"><title>classes</title>
<polygon fill="palegreen" stroke="palegreen" points="309.89,-117 253.89,-117 253.89,-81 309.89,-81 309.89,-117"/>
<text text-anchor="middle" x="281.89" y="-95.3" font-family="Times New Roman,serif" font-size="14.00">classes</text>
</g>
<!-- yamlReader&#45;&gt;classes -->
<g id="edge2" class="edge"><title>yamlReader&#45;&gt;classes</title>
<path fill="none" stroke="black" d="M218.167,-99C226.694,-99 235.359,-99 243.417,-99"/>
<polygon fill="black" stroke="black" points="243.599,-102.5 253.599,-99 243.599,-95.5001 243.599,-102.5"/>
</g>
<!-- FreeMarker -->
<g id="node3" class="node"><title>FreeMarker</title>
<polygon fill="pink" stroke="none" points="426.89,-117 345.89,-117 345.89,-81 426.89,-81 426.89,-117"/>
<text text-anchor="middle" x="386.39" y="-95.3" font-family="Times New Roman,serif" font-size="14.00">FreeMarker</text>
</g>
<!-- classes&#45;&gt;FreeMarker -->
<g id="edge3" class="edge"><title>classes&#45;&gt;FreeMarker</title>
<path fill="none" stroke="black" d="M310.089,-99C317.933,-99 326.749,-99 335.511,-99"/>
<polygon fill="black" stroke="black" points="335.711,-102.5 345.711,-99 335.711,-95.5001 335.711,-102.5"/>
</g>
<!-- RecordObject -->
<g id="node5" class="node"><title>RecordObject</title>
<polygon fill="lightblue" stroke="lightblue" points="645.837,-198 500.338,-198 462.908,-162 608.408,-162 645.837,-198"/>
<text text-anchor="middle" x="554.373" y="-176.3" font-family="Times New Roman,serif" font-size="14.00">RecordObject</text>
</g>
<!-- FreeMarker&#45;&gt;RecordObject -->
<g id="edge4" class="edge"><title>FreeMarker&#45;&gt;RecordObject</title>
<path fill="none" stroke="black" d="M408.631,-117.117C423.13,-128.722 443.208,-143.36 462.89,-153 466.7,-154.866 470.663,-156.63 474.711,-158.295"/>
<polygon fill="black" stroke="black" points="473.687,-161.651 484.276,-161.998 476.214,-155.123 473.687,-161.651"/>
</g>
<!-- HTML_Docs -->
<g id="node6" class="node"><title>HTML_Docs</title>
<polygon fill="lightsalmon" stroke="lightsalmon" points="604.873,-144 503.873,-144 503.873,-108 604.873,-108 604.873,-144"/>
<text text-anchor="middle" x="554.373" y="-122.3" font-family="Times New Roman,serif" font-size="14.00">Documentation</text>
</g>
<!-- FreeMarker&#45;&gt;HTML_Docs -->
<g id="edge5" class="edge"><title>FreeMarker&#45;&gt;HTML_Docs</title>
<path fill="none" stroke="black" d="M427.147,-105.467C447.108,-108.714 471.698,-112.714 493.855,-116.318"/>
<polygon fill="black" stroke="black" points="493.407,-119.791 503.839,-117.943 494.531,-112.882 493.407,-119.791"/>
</g>
<!-- DSECT -->
<g id="node7" class="node"><title>DSECT</title>
<polygon fill="lightgray" stroke="lightgray" points="558.336,-54.0493 560.959,-54.1479 563.556,-54.2953 566.115,-54.4913 568.626,-54.7353 571.079,-55.0266 573.464,-55.3645 575.771,-55.7479 577.993,-56.1759 580.121,-56.6472 582.147,-57.1606 584.064,-57.7147 585.865,-58.308 587.546,-58.9388 589.101,-59.6054 590.526,-60.3059 591.816,-61.0385 592.971,-61.8012 593.987,-62.5918 594.863,-63.4082 595.598,-64.2481 596.194,-65.1093 596.65,-65.9894 596.968,-66.886 597.15,-67.7965 597.199,-68.7186 597.118,-69.6497 596.911,-70.5873 596.582,-71.5287 596.135,-72.4713 595.576,-73.4127 594.909,-74.3503 594.14,-75.2814 593.274,-76.2035 592.318,-77.114 591.277,-78.0106 590.157,-78.8907 588.964,-79.7519 587.703,-80.5918 586.38,-81.4082 585.001,-82.1988 583.571,-82.9615 582.094,-83.6941 580.576,-84.3946 579.021,-85.0612 577.434,-85.692 575.818,-86.2853 574.177,-86.8394 572.514,-87.3528 570.834,-87.8241 569.137,-88.2521 567.427,-88.6355 565.706,-88.9734 563.977,-89.2647 562.24,-89.5087 560.497,-89.7047 558.75,-89.8521 557,-89.9507 555.249,-90 553.497,-90 551.745,-89.9507 549.995,-89.8521 548.248,-89.7047 546.506,-89.5087 544.769,-89.2647 543.039,-88.9734 541.318,-88.6355 539.608,-88.2521 537.912,-87.8241 536.231,-87.3528 534.568,-86.8394 532.927,-86.2853 531.312,-85.692 529.724,-85.0612 528.169,-84.3946 526.651,-83.6941 525.175,-82.9615 523.744,-82.1988 522.365,-81.4082 521.042,-80.5918 519.781,-79.7519 518.588,-78.8907 517.468,-78.0106 516.427,-77.114 515.471,-76.2035 514.605,-75.2814 513.837,-74.3503 513.17,-73.4127 512.61,-72.4713 512.163,-71.5287 511.834,-70.5873 511.627,-69.6497 511.546,-68.7186 511.595,-67.7965 511.777,-66.886 512.095,-65.9894 512.551,-65.1093 513.147,-64.2481 513.882,-63.4082 514.758,-62.5918 515.774,-61.8012 516.929,-61.0385 518.22,-60.3059 519.644,-59.6054 521.199,-58.9388 522.88,-58.308 524.682,-57.7147 526.599,-57.1606 528.624,-56.6472 530.752,-56.1759 532.974,-55.7479 535.282,-55.3645 537.666,-55.0266 540.119,-54.7353 542.63,-54.4913 545.189,-54.2953 547.786,-54.1479 550.41,-54.0493 553.05,-54 555.695,-54 558.336,-54.0493"/>
<text text-anchor="middle" x="554.373" y="-68.3" font-family="Times New Roman,serif" font-size="14.00">DSECT</text>
</g>
<!-- FreeMarker&#45;&gt;DSECT -->
<g id="edge6" class="edge"><title>FreeMarker&#45;&gt;DSECT</title>
<path fill="none" stroke="black" d="M427.147,-92.5328C451.171,-88.625 481.9,-83.6263 507.024,-79.5395"/>
<polygon fill="black" stroke="black" points="507.749,-82.9677 517.057,-77.9074 506.625,-76.0585 507.749,-82.9677"/>
</g>
<!-- Component -->
<g id="node8" class="node"><title>Component</title>
<polygon fill="gold" stroke="gold" points="612.653,-10.5442 612.653,-25.4558 578.513,-36 530.232,-36 496.093,-25.4558 496.093,-10.5442 530.232,-3.55271e-015 578.513,-0 612.653,-10.5442"/>
<text text-anchor="middle" x="554.373" y="-14.3" font-family="Times New Roman,serif" font-size="14.00">Component</text>
</g>
<!-- FreeMarker&#45;&gt;Component -->
<g id="edge7" class="edge"><title>FreeMarker&#45;&gt;Component</title>
<path fill="none" stroke="black" d="M408.631,-80.8825C423.13,-69.2778 443.208,-54.6401 462.89,-45 473.587,-39.7611 485.5,-35.3211 497.078,-31.6485"/>
<polygon fill="black" stroke="black" points="498.131,-34.9868 506.69,-28.7433 496.105,-28.2861 498.131,-34.9868"/>
</g>
<!-- inputYaml -->
<g id="node4" class="node"><title>inputYaml</title>
<polygon fill="palegreen" stroke="palegreen" points="74,-117 0,-117 0,-81 74,-81 74,-117"/>
<text text-anchor="middle" x="37" y="-95.3" font-family="Times New Roman,serif" font-size="14.00">inputYaml</text>
</g>
<!-- inputYaml&#45;&gt;yamlReader -->
<g id="edge1" class="edge"><title>inputYaml&#45;&gt;yamlReader</title>
<path fill="none" stroke="black" d="M74.1393,-99C82.1168,-99 90.7956,-99 99.4995,-99"/>
<polygon fill="black" stroke="black" points="99.6883,-102.5 109.688,-99 99.6882,-95.5001 99.6883,-102.5"/>
</g>
</g>
</svg>
