<?xml version="1.0" encoding="UTF-8" standalone="no"?>

<!--
Copyright Contributors to the GenevaERS Project. SPDX-License-Identifier: Apache-2.0 (c) Copyright IBM Corporation 2008

Licensed under the Apache License, Version 2.0 (the "License");
you may not use this file except in compliance with the License.
You may obtain a copy of the License at

  http://www.apache.org/licenses/LICENSE-2.0

Unless required by applicable law or agreed to in writing,
software distributed under the License is distributed on an
"AS IS" BASIS, WITHOUT WARRANTIES OR CONDITIONS OF ANY
KIND, either express or implied.  See the License for the
specific language governing permissions and limitations
under the License.
-->

<!DOCTYPE svg PUBLIC "-//W3C//DTD SVG 1.1//EN"
 "http://www.w3.org/Graphics/SVG/1.1/DTD/svg11.dtd">
<!-- Generated by graphviz version 2.38.0 (20140413.2041)
 -->
<!-- Title: RunControlGeneratoFileFlowr Pages: 1 -->
<svg width="528pt" height="776pt"
 viewBox="0.00 0.00 527.52 776.00" xmlns="http://www.w3.org/2000/svg" xmlns:xlink="http://www.w3.org/1999/xlink">
<g id="graph0" class="graph" transform="scale(1 1) rotate(0) translate(4 772)">
<title>RunControlGeneratoFileFlowr</title>
<polygon fill="white" stroke="none" points="-4,4 -4,-772 523.519,-772 523.519,4 -4,4"/>
<text text-anchor="middle" x="259.759" y="-746.4" font-family="Helvetica,sans-Serif" font-size="22.00">Component Dependencies</text>
<!-- VIEW -->
<g id="node1" class="node"><title>VIEW</title>
<polygon fill="PaleGreen" stroke="PaleGreen" points="397.019,-684 343.019,-684 343.019,-648 397.019,-648 397.019,-684"/>
<text text-anchor="middle" x="370.019" y="-662.3" font-family="Times New Roman,serif" font-size="14.00">View</text>
</g>
<!-- VS -->
<g id="node2" class="node"><title>VS</title>
<polygon fill="PaleGreen" stroke="PaleGreen" points="228.519,-612 139.519,-612 139.519,-576 228.519,-576 228.519,-612"/>
<text text-anchor="middle" x="184.019" y="-590.3" font-family="Times New Roman,serif" font-size="14.00">View Source</text>
</g>
<!-- VIEW&#45;&gt;VS -->
<g id="edge1" class="edge"><title>VIEW&#45;&gt;VS</title>
<path fill="none" stroke="black" d="M342.973,-654.821C315.62,-644.527 272.585,-628.331 238.188,-615.386"/>
<polygon fill="black" stroke="black" points="239.328,-612.076 228.736,-611.829 236.862,-618.627 239.328,-612.076"/>
</g>
<!-- VC -->
<g id="node3" class="node"><title>VC</title>
<polygon fill="PaleGreen" stroke="PaleGreen" points="379.519,-612 286.519,-612 286.519,-576 379.519,-576 379.519,-612"/>
<text text-anchor="middle" x="333.019" y="-590.3" font-family="Times New Roman,serif" font-size="14.00">View Column</text>
</g>
<!-- VIEW&#45;&gt;VC -->
<g id="edge7" class="edge"><title>VIEW&#45;&gt;VC</title>
<path fill="none" stroke="black" d="M360.873,-647.697C356.616,-639.644 351.463,-629.894 346.752,-620.982"/>
<polygon fill="black" stroke="black" points="349.827,-619.31 342.059,-612.104 343.638,-622.581 349.827,-619.31"/>
</g>
<!-- VSK -->
<g id="node5" class="node"><title>VSK</title>
<polygon fill="PaleGreen" stroke="PaleGreen" points="518.519,-540 419.519,-540 419.519,-504 518.519,-504 518.519,-540"/>
<text text-anchor="middle" x="469.019" y="-518.3" font-family="Times New Roman,serif" font-size="14.00">View Sort Key</text>
</g>
<!-- VIEW&#45;&gt;VSK -->
<g id="edge2" class="edge"><title>VIEW&#45;&gt;VSK</title>
<path fill="none" stroke="black" d="M380.524,-647.998C391.85,-629.884 410.601,-600.502 428.019,-576 434.557,-566.803 442.026,-556.966 448.783,-548.295"/>
<polygon fill="black" stroke="black" points="451.562,-550.423 454.989,-540.398 446.059,-546.098 451.562,-550.423"/>
</g>
<!-- FE -->
<g id="node14" class="node"><title>FE</title>
<polygon fill="pink" stroke="pink" points="519.519,-612 436.519,-612 436.519,-576 519.519,-576 519.519,-612"/>
<text text-anchor="middle" x="478.019" y="-590.3" font-family="Times New Roman,serif" font-size="14.00">Format Exit</text>
</g>
<!-- VIEW&#45;&gt;FE -->
<g id="edge11" class="edge"><title>VIEW&#45;&gt;FE</title>
<path fill="none" stroke="black" d="M396.438,-647.876C410.429,-638.808 427.795,-627.552 442.904,-617.759"/>
<polygon fill="black" stroke="black" points="445.009,-620.566 451.497,-612.19 441.202,-614.692 445.009,-620.566"/>
</g>
<!-- VCS -->
<g id="node4" class="node"><title>VCS</title>
<polygon fill="PaleGreen" stroke="PaleGreen" points="401.519,-540 264.519,-540 264.519,-504 401.519,-504 401.519,-540"/>
<text text-anchor="middle" x="333.019" y="-518.3" font-family="Times New Roman,serif" font-size="14.00">View Column Source</text>
</g>
<!-- VS&#45;&gt;VCS -->
<g id="edge12" class="edge"><title>VS&#45;&gt;VCS</title>
<path fill="none" stroke="black" d="M220.468,-575.876C240.656,-566.392 265.94,-554.513 287.427,-544.419"/>
<polygon fill="black" stroke="black" points="289.125,-547.488 296.687,-540.068 286.148,-541.153 289.125,-547.488"/>
</g>
<!-- LR -->
<g id="node6" class="node"><title>LR</title>
<polygon fill="cyan" stroke="cyan" points="406.019,-252 302.019,-252 302.019,-216 406.019,-216 406.019,-252"/>
<text text-anchor="middle" x="354.019" y="-230.3" font-family="Times New Roman,serif" font-size="14.00">Logical Record</text>
</g>
<!-- VS&#45;&gt;LR -->
<g id="edge3" class="edge"><title>VS&#45;&gt;LR</title>
<path fill="none" stroke="black" d="M139.429,-590.413C102.402,-585.823 51.0959,-573.382 21.0186,-540 -6.05579,-509.951 2.0186,-491.447 2.0186,-451 2.0186,-451 2.0186,-451 2.0186,-377 2.0186,-315.283 190.477,-267.857 291.602,-246.852"/>
<polygon fill="black" stroke="black" points="292.607,-250.219 301.701,-244.782 291.202,-243.361 292.607,-250.219"/>
</g>
<!-- OLF -->
<g id="node9" class="node"><title>OLF</title>
<polygon fill="plum" stroke="plum" points="246.519,-540 121.519,-540 121.519,-504 246.519,-504 246.519,-540"/>
<text text-anchor="middle" x="184.019" y="-518.3" font-family="Times New Roman,serif" font-size="14.00">Output Logical File</text>
</g>
<!-- VS&#45;&gt;OLF -->
<g id="edge20" class="edge"><title>VS&#45;&gt;OLF</title>
<path fill="none" stroke="black" d="M184.019,-575.697C184.019,-567.983 184.019,-558.712 184.019,-550.112"/>
<polygon fill="black" stroke="black" points="187.519,-550.104 184.019,-540.104 180.519,-550.104 187.519,-550.104"/>
</g>
<!-- WE -->
<g id="node12" class="node"><title>WE</title>
<polygon fill="pink" stroke="pink" points="103.519,-540 30.5186,-540 30.5186,-504 103.519,-504 103.519,-540"/>
<text text-anchor="middle" x="67.0186" y="-518.3" font-family="Times New Roman,serif" font-size="14.00">Write Exit</text>
</g>
<!-- VS&#45;&gt;WE -->
<g id="edge22" class="edge"><title>VS&#45;&gt;WE</title>
<path fill="none" stroke="black" d="M155.397,-575.876C140.099,-566.724 121.076,-555.342 104.601,-545.485"/>
<polygon fill="black" stroke="black" points="106.128,-542.32 95.75,-540.19 102.534,-548.327 106.128,-542.32"/>
</g>
<!-- VC&#45;&gt;VCS -->
<g id="edge8" class="edge"><title>VC&#45;&gt;VCS</title>
<path fill="none" stroke="black" d="M333.019,-575.697C333.019,-567.983 333.019,-558.712 333.019,-550.112"/>
<polygon fill="black" stroke="black" points="336.519,-550.104 333.019,-540.104 329.519,-550.104 336.519,-550.104"/>
</g>
<!-- VCS&#45;&gt;LR -->
<g id="edge18" class="edge"><title>VCS&#45;&gt;LR</title>
<path fill="none" stroke="black" d="M322.73,-503.984C300.106,-464.195 250.823,-362.784 287.019,-288 292.78,-276.097 302.656,-266.056 313.081,-258.024"/>
<polygon fill="black" stroke="black" points="315.389,-260.676 321.492,-252.016 311.32,-254.98 315.389,-260.676"/>
</g>
<!-- LP -->
<g id="node15" class="node"><title>LP</title>
<polygon fill="beige" stroke="beige" points="417.519,-468 328.519,-468 328.519,-432 417.519,-432 417.519,-468"/>
<text text-anchor="middle" x="373.019" y="-446.3" font-family="Times New Roman,serif" font-size="14.00">Lookup Path</text>
</g>
<!-- VCS&#45;&gt;LP -->
<g id="edge13" class="edge"><title>VCS&#45;&gt;LP</title>
<path fill="none" stroke="black" d="M342.906,-503.697C347.508,-495.644 353.079,-485.894 358.171,-476.982"/>
<polygon fill="black" stroke="black" points="361.322,-478.523 363.245,-468.104 355.244,-475.05 361.322,-478.523"/>
</g>
<!-- VSK&#45;&gt;LR -->
<g id="edge4" class="edge"><title>VSK&#45;&gt;LR</title>
<path fill="none" stroke="black" d="M471.251,-503.848C475.676,-462.894 481.602,-357.633 437.019,-288 428.929,-275.365 416.633,-265.165 403.965,-257.215"/>
<polygon fill="black" stroke="black" points="405.58,-254.105 395.183,-252.068 402.041,-260.144 405.58,-254.105"/>
</g>
<!-- VSK&#45;&gt;LP -->
<g id="edge5" class="edge"><title>VSK&#45;&gt;LP</title>
<path fill="none" stroke="black" d="M445.288,-503.697C433.082,-494.796 418.033,-483.823 404.834,-474.199"/>
<polygon fill="black" stroke="black" points="406.618,-471.168 396.476,-468.104 402.494,-476.824 406.618,-471.168"/>
</g>
<!-- LF -->
<g id="node7" class="node"><title>LF</title>
<polygon fill="deepskyblue" stroke="deepskyblue" points="344.019,-180 262.019,-180 262.019,-144 344.019,-144 344.019,-180"/>
<text text-anchor="middle" x="303.019" y="-158.3" font-family="Times New Roman,serif" font-size="14.00">Logical File</text>
</g>
<!-- LR&#45;&gt;LF -->
<g id="edge6" class="edge"><title>LR&#45;&gt;LF</title>
<path fill="none" stroke="black" d="M341.412,-215.697C335.421,-207.474 328.142,-197.483 321.539,-188.421"/>
<polygon fill="black" stroke="black" points="324.198,-186.126 315.48,-180.104 318.54,-190.248 324.198,-186.126"/>
</g>
<!-- LE -->
<g id="node13" class="node"><title>LE</title>
<polygon fill="pink" stroke="pink" points="448.019,-180 362.019,-180 362.019,-144 448.019,-144 448.019,-180"/>
<text text-anchor="middle" x="405.019" y="-158.3" font-family="Times New Roman,serif" font-size="14.00">Lookup Exit</text>
</g>
<!-- LR&#45;&gt;LE -->
<g id="edge16" class="edge"><title>LR&#45;&gt;LE</title>
<path fill="none" stroke="black" d="M366.625,-215.697C372.616,-207.474 379.895,-197.483 386.498,-188.421"/>
<polygon fill="black" stroke="black" points="389.497,-190.248 392.557,-180.104 383.839,-186.126 389.497,-190.248"/>
</g>
<!-- PF -->
<g id="node8" class="node"><title>PF</title>
<polygon fill="dodgerblue" stroke="dodgerblue" points="346.519,-108 259.519,-108 259.519,-72 346.519,-72 346.519,-108"/>
<text text-anchor="middle" x="303.019" y="-86.3" font-family="Times New Roman,serif" font-size="14.00">Physical File</text>
</g>
<!-- LF&#45;&gt;PF -->
<g id="edge9" class="edge"><title>LF&#45;&gt;PF</title>
<path fill="none" stroke="black" d="M303.019,-143.697C303.019,-135.983 303.019,-126.712 303.019,-118.112"/>
<polygon fill="black" stroke="black" points="306.519,-118.104 303.019,-108.104 299.519,-118.104 306.519,-118.104"/>
</g>
<!-- RE -->
<g id="node11" class="node"><title>RE</title>
<polygon fill="pink" stroke="pink" points="338.519,-36 267.519,-36 267.519,-0 338.519,-0 338.519,-36"/>
<text text-anchor="middle" x="303.019" y="-14.3" font-family="Times New Roman,serif" font-size="14.00">Read Exit</text>
</g>
<!-- PF&#45;&gt;RE -->
<g id="edge10" class="edge"><title>PF&#45;&gt;RE</title>
<path fill="none" stroke="black" d="M303.019,-71.6966C303.019,-63.9827 303.019,-54.7125 303.019,-46.1124"/>
<polygon fill="black" stroke="black" points="306.519,-46.1043 303.019,-36.1043 299.519,-46.1044 306.519,-46.1043"/>
</g>
<!-- OPF -->
<g id="node10" class="node"><title>OPF</title>
<polygon fill="orchid" stroke="orchid" points="240.019,-468 110.019,-468 110.019,-432 240.019,-432 240.019,-468"/>
<text text-anchor="middle" x="175.019" y="-446.3" font-family="Times New Roman,serif" font-size="14.00">Output Physical File</text>
</g>
<!-- OLF&#45;&gt;OPF -->
<g id="edge21" class="edge"><title>OLF&#45;&gt;OPF</title>
<path fill="none" stroke="black" d="M181.794,-503.697C180.802,-495.983 179.61,-486.712 178.504,-478.112"/>
<polygon fill="black" stroke="black" points="181.964,-477.576 177.218,-468.104 175.022,-478.469 181.964,-477.576"/>
</g>
<!-- LPS -->
<g id="node16" class="node"><title>LPS</title>
<polygon fill="beige" stroke="beige" points="432.519,-396 313.519,-396 313.519,-360 432.519,-360 432.519,-396"/>
<text text-anchor="middle" x="373.019" y="-374.3" font-family="Times New Roman,serif" font-size="14.00">Lookup Path Step</text>
</g>
<!-- LP&#45;&gt;LPS -->
<g id="edge14" class="edge"><title>LP&#45;&gt;LPS</title>
<path fill="none" stroke="black" d="M373.019,-431.697C373.019,-423.983 373.019,-414.712 373.019,-406.112"/>
<polygon fill="black" stroke="black" points="376.519,-406.104 373.019,-396.104 369.519,-406.104 376.519,-406.104"/>
</g>
<!-- LPS&#45;&gt;LR -->
<g id="edge17" class="edge"><title>LPS&#45;&gt;LR</title>
<path fill="none" stroke="black" d="M394.729,-359.787C404.778,-350.414 415.66,-337.9 421.019,-324 426.774,-309.071 427.989,-302.402 421.019,-288 415.257,-276.097 405.382,-266.056 394.956,-258.024"/>
<polygon fill="black" stroke="black" points="396.717,-254.98 386.546,-252.016 392.648,-260.676 396.717,-254.98"/>
</g>
<!-- LPK -->
<g id="node17" class="node"><title>LPK</title>
<polygon fill="beige" stroke="beige" points="412.019,-324 296.019,-324 296.019,-288 412.019,-288 412.019,-324"/>
<text text-anchor="middle" x="354.019" y="-302.3" font-family="Times New Roman,serif" font-size="14.00">Lookup Path Key</text>
</g>
<!-- LPS&#45;&gt;LPK -->
<g id="edge15" class="edge"><title>LPS&#45;&gt;LPK</title>
<path fill="none" stroke="black" d="M368.322,-359.697C366.205,-351.898 363.657,-342.509 361.301,-333.829"/>
<polygon fill="black" stroke="black" points="364.659,-332.838 358.661,-324.104 357.903,-334.672 364.659,-332.838"/>
</g>
<!-- LPK&#45;&gt;LR -->
<g id="edge19" class="edge"><title>LPK&#45;&gt;LR</title>
<path fill="none" stroke="black" d="M354.019,-287.697C354.019,-279.983 354.019,-270.712 354.019,-262.112"/>
<polygon fill="black" stroke="black" points="357.519,-262.104 354.019,-252.104 350.519,-262.104 357.519,-262.104"/>
</g>
</g>
</svg>
