<?xml version="1.0" encoding="UTF-8" standalone="no"?>
<!DOCTYPE svg PUBLIC "-//W3C//DTD SVG 1.1//EN"
 "http://www.w3.org/Graphics/SVG/1.1/DTD/svg11.dtd">
<!-- Generated by graphviz version 2.49.1 (20210923.0004)
 -->
<!-- Title: WorkBench Pages: 1 -->
<svg width="624pt" height="972pt"
 viewBox="0.00 0.00 624.00 972.00" xmlns="http://www.w3.org/2000/svg" xmlns:xlink="http://www.w3.org/1999/xlink">
<g id="graph0" class="graph" transform="scale(1 1) rotate(0) translate(4 968)">
<title>WorkBench</title>
<polygon fill="white" stroke="transparent" points="-4,4 -4,-968 620,-968 620,4 -4,4"/>
<text text-anchor="middle" x="308" y="-942.4" font-family="Helvetica,sans-Serif" font-size="22.00">WorkBench Module Dependencies</text>
<g id="clust2" class="cluster">
<title>cluster_comp</title>
<polygon fill="none" stroke="black" points="46,-593 46,-677 174,-677 174,-593 46,-593"/>
<text text-anchor="middle" x="110" y="-655.4" font-family="Helvetica,sans-Serif" font-size="22.00">RCAReport</text>
</g>
<g id="clust3" class="cluster">
<title>cluster_data</title>
<polygon fill="none" stroke="black" points="385,-398 385,-482 608,-482 608,-398 385,-398"/>
<text text-anchor="middle" x="496.5" y="-460.4" font-family="Helvetica,sans-Serif" font-size="22.00">Run Control Analyser</text>
</g>
<g id="clust4" class="cluster">
<title>cluster_xmlidir</title>
<polygon fill="none" stroke="black" points="8,-398 8,-482 132,-482 132,-398 8,-398"/>
<text text-anchor="middle" x="70" y="-460.4" font-family="Helvetica,sans-Serif" font-size="22.00">WBXMLI</text>
</g>
<g id="clust5" class="cluster">
<title>cluster_rcadir</title>
<polygon fill="none" stroke="black" points="361,-8 361,-92 506,-92 506,-8 361,-8"/>
<text text-anchor="middle" x="433.5" y="-70.4" font-family="Helvetica,sans-Serif" font-size="22.00">Rca directory</text>
</g>
<g id="clust1" class="cluster">
<title>cluster_we</title>
<polygon fill="none" stroke="black" points="100,-788 100,-872 421,-872 421,-788 100,-788"/>
<text text-anchor="middle" x="260.5" y="-850.4" font-family="Helvetica,sans-Serif" font-size="22.00">Export with RcaReport selected</text>
</g>
<g id="clust7" class="cluster">
<title>cluster_rcg</title>
<polygon fill="none" stroke="black" points="140,-398 140,-482 377,-482 377,-398 140,-398"/>
<text text-anchor="middle" x="258.5" y="-460.4" font-family="Helvetica,sans-Serif" font-size="22.00">Run Control Generator</text>
</g>
<g id="clust8" class="cluster">
<title>cluster_rcfiles</title>
<polygon fill="none" stroke="black" points="155,-203 155,-287 369,-287 369,-203 155,-203"/>
<text text-anchor="middle" x="262" y="-265.4" font-family="Helvetica,sans-Serif" font-size="22.00">RC Files</text>
</g>
<g id="clust6" class="cluster">
<title>cluster_reports</title>
<polygon fill="none" stroke="black" points="425,-203 425,-287 570,-287 570,-203 425,-203"/>
<text text-anchor="middle" x="497.5" y="-265.4" font-family="Helvetica,sans-Serif" font-size="22.00">RCA Reports</text>
</g>
<!-- export -->
<g id="node1" class="node">
<title>export</title>
<polygon fill="PaleGreen" stroke="PaleGreen" points="228.5,-832 173.5,-832 173.5,-796 228.5,-796 228.5,-832"/>
<text text-anchor="middle" x="201" y="-810.3" font-family="Times New Roman,serif" font-size="14.00">Export</text>
</g>
<!-- DIR -->
<g id="node2" class="node">
<title>DIR</title>
<polygon fill="#bfefff" stroke="#bfefff" points="165,-637 61,-637 61,-601 165,-601 165,-637"/>
<text text-anchor="middle" x="113" y="-615.3" font-family="Times New Roman,serif" font-size="14.00">Make Directory</text>
</g>
<!-- export&#45;&gt;DIR -->
<g id="edge1" class="edge">
<title>export&#45;&gt;DIR</title>
<path fill="none" stroke="black" d="M189.01,-795.93C177.15,-778.47 159.07,-750.28 147,-724 141.56,-712.16 136.6,-699.2 132.24,-686.57"/>
<polygon fill="black" stroke="black" points="135.53,-685.37 129.03,-677 128.89,-687.59 135.53,-685.37"/>
<text text-anchor="middle" x="167" y="-712.8" font-family="Times New Roman,serif" font-size="14.00"> Step 1</text>
</g>
<!-- rca -->
<g id="node3" class="node">
<title>rca</title>
<polygon fill="PaleGreen" stroke="PaleGreen" points="447,-442 393,-442 393,-406 447,-406 447,-442"/>
<text text-anchor="middle" x="420" y="-420.3" font-family="Times New Roman,serif" font-size="14.00">Run</text>
</g>
<!-- export&#45;&gt;rca -->
<g id="edge7" class="edge">
<title>export&#45;&gt;rca</title>
<path fill="none" stroke="black" d="M210.69,-795.83C240.36,-743.27 331.05,-582.6 382.79,-490.92"/>
<polygon fill="black" stroke="black" points="385.96,-492.43 387.83,-482 379.87,-488.99 385.96,-492.43"/>
<text text-anchor="middle" x="345" y="-615.3" font-family="Times New Roman,serif" font-size="14.00"> Step 4</text>
</g>
<!-- rcg -->
<g id="node7" class="node">
<title>rcg</title>
<polygon fill="pink" stroke="pink" points="214,-442 160,-442 160,-406 214,-406 214,-442"/>
<text text-anchor="middle" x="187" y="-420.3" font-family="Times New Roman,serif" font-size="14.00">Run</text>
</g>
<!-- export&#45;&gt;rcg -->
<g id="edge4" class="edge">
<title>export&#45;&gt;rcg</title>
<path fill="none" stroke="black" d="M200.38,-795.83C198.49,-743.48 192.73,-583.89 189.42,-492.03"/>
<polygon fill="black" stroke="black" points="192.92,-491.86 189.06,-482 185.92,-492.12 192.92,-491.86"/>
<text text-anchor="middle" x="216" y="-615.3" font-family="Times New Roman,serif" font-size="14.00"> Step 3</text>
</g>
<!-- xmlidir -->
<g id="node4" class="node">
<title>xmlidir</title>
<polygon fill="PaleGreen" stroke="PaleGreen" points="124,-442 16,-442 16,-406 124,-406 124,-442"/>
<text text-anchor="middle" x="70" y="-420.3" font-family="Times New Roman,serif" font-size="14.00">Write XML here</text>
</g>
<!-- DIR&#45;&gt;xmlidir -->
<g id="edge2" class="edge">
<title>DIR&#45;&gt;xmlidir</title>
<path fill="none" stroke="black" d="M109.18,-600.87C103.78,-576.63 93.6,-530.93 84.97,-492.2"/>
<polygon fill="black" stroke="black" points="88.29,-491 82.7,-482 81.46,-492.52 88.29,-491"/>
<text text-anchor="middle" x="112" y="-517.8" font-family="Times New Roman,serif" font-size="14.00"> Step 2</text>
</g>
<!-- DIR&#45;&gt;rcg -->
<!-- rcadir -->
<g id="node5" class="node">
<title>rcadir</title>
<polygon fill="PaleGreen" stroke="PaleGreen" points="475.5,-52 390.5,-52 390.5,-16 475.5,-16 475.5,-52"/>
<text text-anchor="middle" x="433" y="-30.3" font-family="Times New Roman,serif" font-size="14.00">gersrca.html</text>
</g>
<!-- rca&#45;&gt;rcadir -->
<g id="edge10" class="edge">
<title>rca&#45;&gt;rcadir</title>
<path fill="none" stroke="black" d="M419.69,-405.88C419.1,-368.85 418.13,-278.57 421,-203 422.26,-169.76 424.77,-132.88 427.17,-102.16"/>
<polygon fill="black" stroke="black" points="430.68,-102.24 427.98,-92 423.7,-101.69 430.68,-102.24"/>
</g>
<!-- rcar -->
<g id="node6" class="node">
<title>rcar</title>
<polygon fill="PaleGreen" stroke="PaleGreen" points="539.5,-247 434.5,-247 434.5,-211 539.5,-211 539.5,-247"/>
<text text-anchor="middle" x="487" y="-225.3" font-family="Times New Roman,serif" font-size="14.00">VDP XLT JLT </text>
</g>
<!-- rca&#45;&gt;rcar -->
<g id="edge9" class="edge">
<title>rca&#45;&gt;rcar</title>
<path fill="none" stroke="black" d="M425.95,-405.87C434.4,-381.52 450.36,-335.54 463.84,-296.7"/>
<polygon fill="black" stroke="black" points="467.24,-297.59 467.21,-287 460.63,-295.3 467.24,-297.59"/>
</g>
<!-- xlt -->
<g id="node9" class="node">
<title>xlt</title>
<polygon fill="pink" stroke="pink" points="289,-247 235,-247 235,-211 289,-211 289,-247"/>
<text text-anchor="middle" x="262" y="-225.3" font-family="Times New Roman,serif" font-size="14.00">XLT</text>
</g>
<!-- rca&#45;&gt;xlt -->
<g id="edge8" class="edge">
<title>rca&#45;&gt;xlt</title>
<path fill="none" stroke="black" d="M395.7,-398.49C370.07,-372.06 329.16,-328.22 298,-287"/>
<polygon fill="black" stroke="black" points="393.33,-401.07 402.82,-405.78 398.34,-396.18 393.33,-401.07"/>
</g>
<!-- xmf -->
<g id="node11" class="node">
<title>xmf</title>
<path fill="grey" stroke="grey" d="M122.5,-243.73C122.5,-245.53 106.14,-247 86,-247 65.86,-247 49.5,-245.53 49.5,-243.73 49.5,-243.73 49.5,-214.27 49.5,-214.27 49.5,-212.47 65.86,-211 86,-211 106.14,-211 122.5,-212.47 122.5,-214.27 122.5,-214.27 122.5,-243.73 122.5,-243.73"/>
<path fill="none" stroke="grey" d="M122.5,-243.73C122.5,-241.92 106.14,-240.45 86,-240.45 65.86,-240.45 49.5,-241.92 49.5,-243.73"/>
<text text-anchor="middle" x="86" y="-225.3" font-family="Times New Roman,serif" font-size="14.00">WB XML</text>
</g>
<!-- xmlidir&#45;&gt;xmf -->
<g id="edge3" class="edge">
<title>xmlidir&#45;&gt;xmf</title>
<path fill="none" stroke="black" d="M71.42,-405.87C74.2,-372.32 80.39,-297.71 83.74,-257.29"/>
<polygon fill="black" stroke="black" points="87.25,-257.34 84.58,-247.09 80.27,-256.77 87.25,-257.34"/>
</g>
<!-- rcar&#45;&gt;rcadir -->
<!-- rcg&#45;&gt;xlt -->
<g id="edge5" class="edge">
<title>rcg&#45;&gt;xlt</title>
<path fill="none" stroke="black" d="M193.66,-405.87C203.12,-381.52 220.99,-335.54 236.08,-296.7"/>
<polygon fill="black" stroke="black" points="239.49,-297.59 239.85,-287 232.97,-295.05 239.49,-297.59"/>
</g>
<!-- rcg&#45;&gt;xmf -->
<g id="edge6" class="edge">
<title>rcg&#45;&gt;xmf</title>
<path fill="none" stroke="black" d="M173.37,-396.95C152.36,-356.82 112.67,-280.96 94.94,-247.09"/>
<polygon fill="black" stroke="black" points="170.3,-398.64 178.04,-405.87 176.5,-395.39 170.3,-398.64"/>
</g>
<!-- vdp -->
<g id="node8" class="node">
<title>vdp</title>
<polygon fill="pink" stroke="pink" points="361,-247 307,-247 307,-211 361,-211 361,-247"/>
<text text-anchor="middle" x="334" y="-225.3" font-family="Times New Roman,serif" font-size="14.00">VDP</text>
</g>
<!-- jlt -->
<g id="node10" class="node">
<title>jlt</title>
<polygon fill="pink" stroke="pink" points="217,-247 163,-247 163,-211 217,-211 217,-247"/>
<text text-anchor="middle" x="190" y="-225.3" font-family="Times New Roman,serif" font-size="14.00">JLT</text>
</g>
</g>
</svg>
