<?xml version="1.0" encoding="UTF-8" standalone="no"?>

<!--
Copyright Contributors to the GenevaERS Project. SPDX-License-Identifier: Apache-2.0 (c) Copyright IBM Corporation 2008

Licensed under the Apache License, Version 2.0 (the "License");
you may not use this file except in compliance with the License.
You may obtain a copy of the License at

  http://www.apache.org/licenses/LICENSE-2.0

Unless required by applicable law or agreed to in writing,
software distributed under the License is distributed on an
"AS IS" BASIS, WITHOUT WARRANTIES OR CONDITIONS OF ANY
KIND, either express or implied.  See the License for the
specific language governing permissions and limitations
under the License.
-->

<!DOCTYPE svg PUBLIC "-//W3C//DTD SVG 1.1//EN"
 "http://www.w3.org/Graphics/SVG/1.1/DTD/svg11.dtd">
<!-- Generated by graphviz version 2.38.0 (20140413.2041)
 -->
<!-- Title: FrontendProjects Pages: 1 -->
<svg width="1189pt" height="922pt"
 viewBox="0.00 0.00 1189.34 922.00" xmlns="http://www.w3.org/2000/svg" xmlns:xlink="http://www.w3.org/1999/xlink">
<g id="graph0" class="graph" transform="scale(1 1) rotate(0) translate(4 918)">
<title>FrontendProjects</title>
<polygon fill="white" stroke="none" points="-4,4 -4,-918 1185.34,-918 1185.34,4 -4,4"/>
<text text-anchor="middle" x="590.671" y="-892.4" font-family="Helvetica,sans-Serif" font-size="22.00">Frontend Projects</text>
<g id="clust1" class="cluster"><title>cluster_rcg</title>
<polygon fill="none" stroke="black" points="522,-550 522,-822 1073,-822 1073,-550 522,-550"/>
<text text-anchor="middle" x="797.5" y="-800.4" font-family="Helvetica,sans-Serif" font-size="22.00">Run Control Generator</text>
</g>
<g id="clust2" class="cluster"><title>cluster_comp</title>
<polygon fill="none" stroke="black" points="679,-558 679,-642 951,-642 951,-558 679,-558"/>
<text text-anchor="middle" x="815" y="-620.4" font-family="Helvetica,sans-Serif" font-size="22.00">Compilers</text>
</g>
<g id="clust3" class="cluster"><title>cluster_fa</title>
<polygon fill="none" stroke="black" points="167,-558 167,-642 390,-642 390,-558 167,-558"/>
<text text-anchor="middle" x="278.5" y="-620.4" font-family="Helvetica,sans-Serif" font-size="22.00">Run Control Analyser</text>
</g>
<g id="clust4" class="cluster"><title>cluster_gio</title>
<polygon fill="none" stroke="black" points="8,-190 8,-502 1152,-502 1152,-190 8,-190"/>
<text text-anchor="middle" x="580" y="-480.4" font-family="Helvetica,sans-Serif" font-size="22.00">GenevaIO</text>
</g>
<g id="clust7" class="cluster"><title>cluster_gior</title>
<polygon fill="none" stroke="black" points="686,-378 686,-462 1144,-462 1144,-378 686,-378"/>
<text text-anchor="middle" x="915" y="-440.4" font-family="Helvetica,sans-Serif" font-size="22.00">Readers</text>
</g>
<g id="clust8" class="cluster"><title>cluster_giow</title>
<polygon fill="none" stroke="black" points="463,-378 463,-462 678,-462 678,-378 463,-378"/>
<text text-anchor="middle" x="570.5" y="-440.4" font-family="Helvetica,sans-Serif" font-size="22.00">Writers</text>
</g>
<g id="clust5" class="cluster"><title>cluster_giolt</title>
<polygon fill="none" stroke="black" points="270,-198 270,-462 455,-462 455,-198 270,-198"/>
<text text-anchor="middle" x="362.5" y="-440.4" font-family="Helvetica,sans-Serif" font-size="22.00">LT File</text>
</g>
<g id="clust6" class="cluster"><title>cluster_giovdp</title>
<polygon fill="none" stroke="black" points="16,-198 16,-462 262,-462 262,-198 16,-198"/>
<text text-anchor="middle" x="139" y="-440.4" font-family="Helvetica,sans-Serif" font-size="22.00">VDP File</text>
</g>
<g id="clust9" class="cluster"><title>cluster_repo</title>
<polygon fill="none" stroke="black" points="821,-8 821,-112 997,-112 997,-8 821,-8"/>
<text text-anchor="middle" x="909" y="-90.4" font-family="Helvetica,sans-Serif" font-size="22.00">Repository</text>
</g>
<!-- RCG -->
<g id="node1" class="node"><title>RCG</title>
<polygon fill="PaleGreen" stroke="PaleGreen" points="888,-782 742,-782 742,-746 888,-746 888,-782"/>
<text text-anchor="middle" x="815" y="-760.3" font-family="Times New Roman,serif" font-size="14.00">Run Control Generator</text>
</g>
<!-- SPO -->
<g id="node2" class="node"><title>SPO</title>
<polygon fill="#bfefff" stroke="#bfefff" points="669.5,-602 530.5,-602 530.5,-566 669.5,-566 669.5,-602"/>
<text text-anchor="middle" x="600" y="-580.3" font-family="Times New Roman,serif" font-size="14.00">Single Pass Optimiser</text>
</g>
<!-- RCG&#45;&gt;SPO -->
<g id="edge12" class="edge"><title>RCG&#45;&gt;SPO</title>
<path fill="none" stroke="black" d="M794.385,-745.933C755.698,-713.903 672.168,-644.749 628.269,-608.404"/>
<polygon fill="black" stroke="black" points="630.487,-605.697 620.553,-602.016 626.023,-611.089 630.487,-605.697"/>
</g>
<!-- EPF -->
<g id="node3" class="node"><title>EPF</title>
<polygon fill="#bfefff" stroke="#bfefff" points="943,-602 825,-602 825,-566 943,-566 943,-602"/>
<text text-anchor="middle" x="884" y="-580.3" font-family="Times New Roman,serif" font-size="14.00">Extract Compilers</text>
</g>
<!-- RCG&#45;&gt;EPF -->
<g id="edge14" class="edge"><title>RCG&#45;&gt;EPF</title>
<path fill="none" stroke="black" d="M821.616,-745.933C833.671,-714.833 859.294,-648.735 873.669,-611.652"/>
<polygon fill="black" stroke="black" points="877.053,-612.605 877.404,-602.016 870.526,-610.075 877.053,-612.605"/>
</g>
<!-- FPF -->
<g id="node4" class="node"><title>FPF</title>
<polygon fill="#bfefff" stroke="#bfefff" points="806.5,-602 687.5,-602 687.5,-566 806.5,-566 806.5,-602"/>
<text text-anchor="middle" x="747" y="-580.3" font-family="Times New Roman,serif" font-size="14.00">Format Compilers</text>
</g>
<!-- RCG&#45;&gt;FPF -->
<g id="edge13" class="edge"><title>RCG&#45;&gt;FPF</title>
<path fill="none" stroke="black" d="M808.48,-745.933C796.599,-714.833 771.348,-648.735 757.182,-611.652"/>
<polygon fill="black" stroke="black" points="760.339,-610.108 753.5,-602.016 753.8,-612.606 760.339,-610.108"/>
</g>
<!-- JLT -->
<g id="node5" class="node"><title>JLT</title>
<polygon fill="#bfefff" stroke="#bfefff" points="1065,-602 961,-602 961,-566 1065,-566 1065,-602"/>
<text text-anchor="middle" x="1013" y="-580.3" font-family="Times New Roman,serif" font-size="14.00">JLT Generation</text>
</g>
<!-- RCG&#45;&gt;JLT -->
<g id="edge15" class="edge"><title>RCG&#45;&gt;JLT</title>
<path fill="none" stroke="black" d="M835.763,-745.769C863.419,-722.656 913.663,-680.104 955,-642 966.36,-631.528 978.607,-619.593 988.907,-609.359"/>
<polygon fill="black" stroke="black" points="991.419,-611.796 996.021,-602.253 986.473,-606.844 991.419,-611.796"/>
</g>
<!-- VDPR -->
<g id="node10" class="node"><title>VDPR</title>
<polygon fill="#bfefff" stroke="#bfefff" points="254,-422 146,-422 146,-386 254,-386 254,-422"/>
<text text-anchor="middle" x="200" y="-400.3" font-family="Times New Roman,serif" font-size="14.00">VDPFile Reader</text>
</g>
<!-- SPO&#45;&gt;VDPR -->
<g id="edge4" class="edge"><title>SPO&#45;&gt;VDPR</title>
<path fill="none" stroke="black" d="M522.352,-570.813C437.161,-556.299 307.047,-530.422 266,-502 253.916,-493.633 243.401,-482.276 234.53,-470.279"/>
<polygon fill="black" stroke="black" points="237.26,-468.077 228.652,-461.901 231.53,-472.097 237.26,-468.077"/>
</g>
<!-- WB -->
<g id="node13" class="node"><title>WB</title>
<polygon fill="#bfefff" stroke="#bfefff" points="1135.5,-422 1066.5,-422 1066.5,-386 1135.5,-386 1135.5,-422"/>
<text text-anchor="middle" x="1101" y="-400.3" font-family="Times New Roman,serif" font-size="14.00">WBXML</text>
</g>
<!-- EPF&#45;&gt;WB -->
<g id="edge1" class="edge"><title>EPF&#45;&gt;WB</title>
<path fill="none" stroke="black" d="M947,-550C995.1,-526.944 1019.01,-539.445 1057,-502 1065.94,-493.188 1073.23,-482.228 1079.12,-470.88"/>
<polygon fill="black" stroke="black" points="1082.35,-472.255 1083.55,-461.729 1076.04,-469.206 1082.35,-472.255"/>
</g>
<!-- REPOC -->
<g id="node19" class="node"><title>REPOC</title>
<polygon fill="#bfefff" stroke="#bfefff" points="979,-62 925,-62 925,-26 979,-26 979,-62"/>
<text text-anchor="middle" x="952" y="-40.3" font-family="Times New Roman,serif" font-size="14.00">Views</text>
</g>
<!-- EPF&#45;&gt;REPOC -->
<g id="edge16" class="edge"><title>EPF&#45;&gt;REPOC</title>
<path fill="none" stroke="black" d="M947,-550C1033.01,-517.777 1091.1,-574.093 1148,-502 1249.96,-372.828 1091.41,-182.64 1003.77,-93.9214"/>
<polygon fill="black" stroke="black" points="1006.09,-91.2945 996.556,-86.6832 1001.14,-96.2365 1006.09,-91.2945"/>
</g>
<!-- LTW -->
<g id="node8" class="node"><title>LTW</title>
<polygon fill="#bfefff" stroke="#bfefff" points="351.5,-422 278.5,-422 278.5,-386 351.5,-386 351.5,-422"/>
<text text-anchor="middle" x="315" y="-400.3" font-family="Times New Roman,serif" font-size="14.00">LT Writer</text>
</g>
<!-- FPF&#45;&gt;LTW -->
<g id="edge17" class="edge"><title>FPF&#45;&gt;LTW</title>
<path fill="none" stroke="black" d="M683,-550C544.866,-505.478 476.238,-588.902 360,-502 349.372,-494.054 341.171,-482.983 334.87,-471.152"/>
<polygon fill="black" stroke="black" points="337.937,-469.455 330.413,-461.995 331.642,-472.519 337.937,-469.455"/>
</g>
<!-- FA -->
<g id="node6" class="node"><title>FA</title>
<polygon fill="PaleGreen" stroke="PaleGreen" points="347.5,-602 208.5,-602 208.5,-566 347.5,-566 347.5,-602"/>
<text text-anchor="middle" x="278" y="-580.3" font-family="Times New Roman,serif" font-size="14.00">Run Control Analyser</text>
</g>
<!-- FA&#45;&gt;VDPR -->
<g id="edge2" class="edge"><title>FA&#45;&gt;VDPR</title>
<path fill="none" stroke="black" d="M267.138,-558.212C257.292,-535.744 242.331,-501.601 229.028,-471.244"/>
<polygon fill="black" stroke="black" points="232.099,-469.53 224.879,-461.775 225.687,-472.339 232.099,-469.53"/>
</g>
<!-- HTML -->
<g id="node17" class="node"><title>HTML</title>
<polygon fill="#bfefff" stroke="#bfefff" points="566.5,-422 471.5,-422 471.5,-386 566.5,-386 566.5,-422"/>
<text text-anchor="middle" x="519" y="-400.3" font-family="Times New Roman,serif" font-size="14.00">HTML Writer</text>
</g>
<!-- FA&#45;&gt;HTML -->
<g id="edge3" class="edge"><title>FA&#45;&gt;HTML</title>
<path fill="none" stroke="black" d="M360.1,-558.173C393.406,-545.235 430.627,-526.826 459,-502 469.341,-492.952 478.484,-481.683 486.319,-470.061"/>
<polygon fill="black" stroke="black" points="489.32,-471.865 491.791,-461.563 483.434,-468.075 489.32,-471.865"/>
</g>
<!-- LTR -->
<g id="node7" class="node"><title>LTR</title>
<polygon fill="#bfefff" stroke="#bfefff" points="446.5,-422 369.5,-422 369.5,-386 446.5,-386 446.5,-422"/>
<text text-anchor="middle" x="408" y="-400.3" font-family="Times New Roman,serif" font-size="14.00">LT Reader</text>
</g>
<!-- REPOL -->
<g id="node9" class="node"><title>REPOL</title>
<polygon fill="#bfefff" stroke="#bfefff" points="447,-242 363,-242 363,-206 447,-206 447,-242"/>
<text text-anchor="middle" x="405" y="-220.3" font-family="Times New Roman,serif" font-size="14.00">Logic Table</text>
</g>
<!-- LTR&#45;&gt;REPOL -->
<g id="edge5" class="edge"><title>LTR&#45;&gt;REPOL</title>
<path fill="none" stroke="black" d="M407.712,-385.933C407.19,-354.966 406.084,-289.299 405.457,-252.129"/>
<polygon fill="black" stroke="black" points="408.955,-251.955 405.287,-242.016 401.956,-252.073 408.955,-251.955"/>
</g>
<!-- LTW&#45;&gt;REPOL -->
<g id="edge6" class="edge"><title>LTW&#45;&gt;REPOL</title>
<path fill="none" stroke="black" d="M323.63,-385.933C339.421,-354.7 373.061,-288.169 391.764,-251.178"/>
<polygon fill="black" stroke="black" points="395.008,-252.519 396.397,-242.016 388.761,-249.361 395.008,-252.519"/>
</g>
<!-- REPOV -->
<g id="node12" class="node"><title>REPOV</title>
<polygon fill="#bfefff" stroke="#bfefff" points="254,-242 138,-242 138,-206 254,-206 254,-242"/>
<text text-anchor="middle" x="196" y="-220.3" font-family="Times New Roman,serif" font-size="14.00">VDP File Objects</text>
</g>
<!-- VDPR&#45;&gt;REPOV -->
<g id="edge10" class="edge"><title>VDPR&#45;&gt;REPOV</title>
<path fill="none" stroke="black" d="M199.616,-385.933C198.921,-354.966 197.445,-289.299 196.61,-252.129"/>
<polygon fill="black" stroke="black" points="200.106,-251.935 196.382,-242.016 193.108,-252.092 200.106,-251.935"/>
</g>
<!-- VDPW -->
<g id="node11" class="node"><title>VDPW</title>
<polygon fill="#bfefff" stroke="#bfefff" points="128,-422 24,-422 24,-386 128,-386 128,-422"/>
<text text-anchor="middle" x="76" y="-400.3" font-family="Times New Roman,serif" font-size="14.00">VDPFile Writer</text>
</g>
<!-- VDPW&#45;&gt;REPOV -->
<g id="edge9" class="edge"><title>VDPW&#45;&gt;REPOV</title>
<path fill="none" stroke="black" d="M87.5061,-385.933C108.651,-354.568 153.796,-287.602 178.669,-250.708"/>
<polygon fill="black" stroke="black" points="181.841,-252.264 184.529,-242.016 176.037,-248.351 181.841,-252.264"/>
</g>
<!-- REPOM -->
<g id="node20" class="node"><title>REPOM</title>
<polygon fill="#bfefff" stroke="#bfefff" points="907,-62 839,-62 839,-26 907,-26 907,-62"/>
<text text-anchor="middle" x="873" y="-40.3" font-family="Times New Roman,serif" font-size="14.00">Metadata</text>
</g>
<!-- REPOV&#45;&gt;REPOM -->
<g id="edge18" class="edge"><title>REPOV&#45;&gt;REPOM</title>
<path fill="none" stroke="black" d="M245.722,-198.038C252.45,-195.111 259.332,-192.34 266,-190 460.222,-121.84 700.463,-74.99 811.46,-55.358"/>
<polygon fill="black" stroke="black" points="812.229,-58.7766 821.472,-53.5991 811.018,-51.8822 812.229,-58.7766"/>
</g>
<!-- WB&#45;&gt;REPOC -->
<g id="edge11" class="edge"><title>WB&#45;&gt;REPOC</title>
<path fill="none" stroke="black" d="M1093.81,-385.733C1074.26,-338.746 1019.18,-206.404 983.697,-121.158"/>
<polygon fill="black" stroke="black" points="986.866,-119.664 979.792,-111.776 980.404,-122.353 986.866,-119.664"/>
</g>
<!-- DB2 -->
<g id="node14" class="node"><title>DB2</title>
<polygon fill="pink" stroke="pink" points="1048,-422 962,-422 962,-386 1048,-386 1048,-422"/>
<text text-anchor="middle" x="1005" y="-400.3" font-family="Times New Roman,serif" font-size="14.00">DB2 Reader</text>
</g>
<!-- PG -->
<g id="node15" class="node"><title>PG</title>
<polygon fill="pink" stroke="pink" points="943.5,-422 834.5,-422 834.5,-386 943.5,-386 943.5,-422"/>
<text text-anchor="middle" x="889" y="-400.3" font-family="Times New Roman,serif" font-size="14.00">Postgres Reader</text>
</g>
<!-- VX -->
<g id="node16" class="node"><title>VX</title>
<polygon fill="pink" stroke="pink" points="816,-422 694,-422 694,-386 816,-386 816,-422"/>
<text text-anchor="middle" x="755" y="-400.3" font-family="Times New Roman,serif" font-size="14.00">VDP XML Reader</text>
</g>
<!-- HTML&#45;&gt;REPOL -->
<g id="edge7" class="edge"><title>HTML&#45;&gt;REPOL</title>
<path fill="none" stroke="black" d="M503.232,-378.38C491.958,-360.777 476.056,-335.946 460.323,-311.382"/>
<polygon fill="black" stroke="black" points="463.049,-309.148 454.708,-302.615 457.154,-312.923 463.049,-309.148"/>
</g>
<!-- DOT -->
<g id="node18" class="node"><title>DOT</title>
<polygon fill="#bfefff" stroke="#bfefff" points="669.5,-422 584.5,-422 584.5,-386 669.5,-386 669.5,-422"/>
<text text-anchor="middle" x="627" y="-400.3" font-family="Times New Roman,serif" font-size="14.00">DOT Writer</text>
</g>
<!-- DOT&#45;&gt;REPOM -->
<g id="edge8" class="edge"><title>DOT&#45;&gt;REPOM</title>
<path fill="none" stroke="black" d="M644.023,-378.227C680.119,-325.697 765.588,-201.316 821.282,-120.264"/>
<polygon fill="black" stroke="black" points="824.24,-122.14 827.019,-111.916 818.471,-118.176 824.24,-122.14"/>
</g>
</g>
</svg>
