<?xml version="1.0" encoding="UTF-8" standalone="no"?>

<!--
Copyright Contributors to the GenevaERS Project. SPDX-License-Identifier: Apache-2.0 (c) Copyright IBM Corporation 2008

Licensed under the Apache License, Version 2.0 (the "License");
you may not use this file except in compliance with the License.
You may obtain a copy of the License at

  http://www.apache.org/licenses/LICENSE-2.0

Unless required by applicable law or agreed to in writing,
software distributed under the License is distributed on an
"AS IS" BASIS, WITHOUT WARRANTIES OR CONDITIONS OF ANY
KIND, either express or implied.  See the License for the
specific language governing permissions and limitations
under the License.
-->

<!DOCTYPE svg PUBLIC "-//W3C//DTD SVG 1.1//EN"
 "http://www.w3.org/Graphics/SVG/1.1/DTD/svg11.dtd">
<!-- Generated by graphviz version 2.38.0 (20140413.2041)
 -->
<!-- Title: WorkBench Pages: 1 -->
<svg width="983pt" height="912pt"
 viewBox="0.00 0.00 983.00 912.00" xmlns="http://www.w3.org/2000/svg" xmlns:xlink="http://www.w3.org/1999/xlink">
<g id="graph0" class="graph" transform="scale(1 1) rotate(0) translate(4 908)">
<title>WorkBench</title>
<polygon fill="white" stroke="none" points="-4,4 -4,-908 979,-908 979,4 -4,4"/>
<text text-anchor="middle" x="487.5" y="-882.4" font-family="Helvetica,sans-Serif" font-size="22.00">WorkBench Module Dependencies</text>
<g id="clust1" class="cluster"><title>cluster_we</title>
<polygon fill="none" stroke="black" points="138,-728 138,-812 844,-812 844,-728 138,-728"/>
<text text-anchor="middle" x="491" y="-790.4" font-family="Helvetica,sans-Serif" font-size="22.00">User Interface</text>
</g>
<g id="clust2" class="cluster"><title>cluster_comp</title>
<polygon fill="none" stroke="black" points="8,-548 8,-632 280,-632 280,-548 8,-548"/>
<text text-anchor="middle" x="144" y="-610.4" font-family="Helvetica,sans-Serif" font-size="22.00">Compilers</text>
</g>
<g id="clust6" class="cluster"><title>cluster_ftp</title>
<polygon fill="none" stroke="black" points="897,-548 897,-632 967,-632 967,-548 897,-548"/>
<text text-anchor="middle" x="932" y="-610.4" font-family="Helvetica,sans-Serif" font-size="22.00">FTP</text>
</g>
<g id="clust3" class="cluster"><title>cluster_data</title>
<polygon fill="none" stroke="black" points="270,-8 270,-272 442,-272 442,-8 270,-8"/>
<text text-anchor="middle" x="356" y="-250.4" font-family="Helvetica,sans-Serif" font-size="22.00">Data</text>
</g>
<g id="clust5" class="cluster"><title>cluster_import</title>
<polygon fill="none" stroke="black" points="434,-548 434,-632 644,-632 644,-548 434,-548"/>
<text text-anchor="middle" x="539" y="-610.4" font-family="Helvetica,sans-Serif" font-size="22.00">XML Interface</text>
</g>
<g id="clust8" class="cluster"><title>cluster_rc</title>
<polygon fill="none" stroke="black" points="696,-368 696,-452 910,-452 910,-368 696,-368"/>
<text text-anchor="middle" x="803" y="-430.4" font-family="Helvetica,sans-Serif" font-size="22.00">RCG Files</text>
</g>
<g id="clust7" class="cluster"><title>cluster_rcg</title>
<polygon fill="none" stroke="black" points="652,-548 652,-632 889,-632 889,-548 652,-548"/>
<text text-anchor="middle" x="770.5" y="-610.4" font-family="Helvetica,sans-Serif" font-size="22.00">Run Control Generator</text>
</g>
<g id="clust4" class="cluster"><title>cluster_model</title>
<polygon fill="none" stroke="black" points="320,-368 320,-452 395,-452 395,-368 320,-368"/>
<text text-anchor="middle" x="357.5" y="-430.4" font-family="Helvetica,sans-Serif" font-size="22.00">Model</text>
</g>
<!-- eds -->
<g id="node1" class="node"><title>eds</title>
<polygon fill="PaleGreen" stroke="PaleGreen" points="203.5,-772 146.5,-772 146.5,-736 203.5,-736 203.5,-772"/>
<text text-anchor="middle" x="175" y="-750.3" font-family="Times New Roman,serif" font-size="14.00">Editors</text>
</g>
<!-- EPF -->
<g id="node10" class="node"><title>EPF</title>
<polygon fill="#bfefff" stroke="#bfefff" points="272,-592 154,-592 154,-556 272,-556 272,-592"/>
<text text-anchor="middle" x="213" y="-570.3" font-family="Times New Roman,serif" font-size="14.00">Extract Compilers</text>
</g>
<!-- eds&#45;&gt;EPF -->
<g id="edge6" class="edge"><title>eds&#45;&gt;EPF</title>
<path fill="none" stroke="black" d="M178.644,-735.933C183.274,-714.244 191.538,-675.533 198.801,-641.513"/>
<polygon fill="black" stroke="black" points="202.253,-642.106 200.918,-631.596 195.407,-640.645 202.253,-642.106"/>
</g>
<!-- FPF -->
<g id="node11" class="node"><title>FPF</title>
<polygon fill="#bfefff" stroke="#bfefff" points="135.5,-592 16.5,-592 16.5,-556 135.5,-556 135.5,-592"/>
<text text-anchor="middle" x="76" y="-570.3" font-family="Times New Roman,serif" font-size="14.00">Format Compilers</text>
</g>
<!-- eds&#45;&gt;FPF -->
<g id="edge7" class="edge"><title>eds&#45;&gt;FPF</title>
<path fill="none" stroke="black" d="M165.507,-735.933C153.361,-714.094 131.616,-674.997 112.601,-640.808"/>
<polygon fill="black" stroke="black" points="115.497,-638.813 107.577,-631.775 109.379,-642.216 115.497,-638.813"/>
</g>
<!-- model -->
<g id="node15" class="node"><title>model</title>
<polygon fill="PaleGreen" stroke="PaleGreen" points="384,-412 330,-412 330,-376 384,-376 384,-412"/>
<text text-anchor="middle" x="357" y="-390.3" font-family="Times New Roman,serif" font-size="14.00">Model</text>
</g>
<!-- eds&#45;&gt;model -->
<g id="edge4" class="edge"><title>eds&#45;&gt;model</title>
<path fill="none" stroke="black" d="M195.18,-735.748C219.524,-713.913 260.144,-674.052 284,-632 292.605,-616.833 319.556,-525.94 338.186,-461.245"/>
<polygon fill="black" stroke="black" points="341.587,-462.081 340.985,-451.503 334.859,-460.147 341.587,-462.081"/>
</g>
<!-- diags -->
<g id="node2" class="node"><title>diags</title>
<polygon fill="PaleGreen" stroke="PaleGreen" points="280.5,-772 221.5,-772 221.5,-736 280.5,-736 280.5,-772"/>
<text text-anchor="middle" x="251" y="-750.3" font-family="Times New Roman,serif" font-size="14.00">Dialogs</text>
</g>
<!-- diags&#45;&gt;model -->
<g id="edge3" class="edge"><title>diags&#45;&gt;model</title>
<path fill="none" stroke="black" d="M262.143,-735.71C276.347,-712.877 300.656,-670.989 314,-632 333.073,-576.272 344.175,-510.121 350.304,-461.887"/>
<polygon fill="black" stroke="black" points="353.788,-462.23 351.537,-451.877 346.841,-461.374 353.788,-462.23"/>
</g>
<!-- reps -->
<g id="node3" class="node"><title>reps</title>
<polygon fill="gold" stroke="gold" points="513,-772 451,-772 451,-736 513,-736 513,-772"/>
<text text-anchor="middle" x="482" y="-750.3" font-family="Times New Roman,serif" font-size="14.00">Reports</text>
</g>
<!-- reps&#45;&gt;model -->
<g id="edge10" class="edge"><title>reps&#45;&gt;model</title>
<path fill="none" stroke="black" d="M466.962,-735.908C448.206,-713.614 416.591,-672.645 400,-632 377.631,-577.199 366.853,-510.546 361.686,-461.9"/>
<polygon fill="black" stroke="black" points="365.154,-461.401 360.667,-451.803 358.189,-462.104 365.154,-461.401"/>
</g>
<!-- importer -->
<g id="node4" class="node"><title>importer</title>
<polygon fill="PaleGreen" stroke="PaleGreen" points="596.5,-772 531.5,-772 531.5,-736 596.5,-736 596.5,-772"/>
<text text-anchor="middle" x="564" y="-750.3" font-family="Times New Roman,serif" font-size="14.00">Importer</text>
</g>
<!-- xmlr -->
<g id="node16" class="node"><title>xmlr</title>
<polygon fill="PaleGreen" stroke="PaleGreen" points="532,-592 442,-592 442,-556 532,-556 532,-592"/>
<text text-anchor="middle" x="487" y="-570.3" font-family="Times New Roman,serif" font-size="14.00">XML Reader</text>
</g>
<!-- importer&#45;&gt;xmlr -->
<g id="edge11" class="edge"><title>importer&#45;&gt;xmlr</title>
<path fill="none" stroke="black" d="M556.617,-735.933C547.202,-714.168 530.372,-675.263 515.619,-641.157"/>
<polygon fill="black" stroke="black" points="518.703,-639.472 511.52,-631.683 512.278,-642.251 518.703,-639.472"/>
</g>
<!-- exporter -->
<g id="node5" class="node"><title>exporter</title>
<polygon fill="PaleGreen" stroke="PaleGreen" points="679.5,-772 614.5,-772 614.5,-736 679.5,-736 679.5,-772"/>
<text text-anchor="middle" x="647" y="-750.3" font-family="Times New Roman,serif" font-size="14.00">Exporter</text>
</g>
<!-- xmlw -->
<g id="node17" class="node"><title>xmlw</title>
<polygon fill="PaleGreen" stroke="PaleGreen" points="636,-592 550,-592 550,-556 636,-556 636,-592"/>
<text text-anchor="middle" x="593" y="-570.3" font-family="Times New Roman,serif" font-size="14.00">XML Writer</text>
</g>
<!-- exporter&#45;&gt;xmlw -->
<g id="edge12" class="edge"><title>exporter&#45;&gt;xmlw</title>
<path fill="none" stroke="black" d="M641.822,-735.933C635.248,-714.261 623.518,-675.595 613.203,-641.595"/>
<polygon fill="black" stroke="black" points="616.448,-640.237 610.196,-631.683 609.75,-642.269 616.448,-640.237"/>
</g>
<!-- login -->
<g id="node6" class="node"><title>login</title>
<polygon fill="gold" stroke="gold" points="433,-772 379,-772 379,-736 433,-736 433,-772"/>
<text text-anchor="middle" x="406" y="-750.3" font-family="Times New Roman,serif" font-size="14.00">Login</text>
</g>
<!-- sec -->
<g id="node7" class="node"><title>sec</title>
<polygon fill="gold" stroke="gold" points="361,-772 299,-772 299,-736 361,-736 361,-772"/>
<text text-anchor="middle" x="330" y="-750.3" font-family="Times New Roman,serif" font-size="14.00">Security</text>
</g>
<!-- anz -->
<g id="node8" class="node"><title>anz</title>
<polygon fill="pink" stroke="pink" points="835.5,-772 770.5,-772 770.5,-736 835.5,-736 835.5,-772"/>
<text text-anchor="middle" x="803" y="-750.3" font-family="Times New Roman,serif" font-size="14.00">Analyzer</text>
</g>
<!-- ftp -->
<g id="node18" class="node"><title>ftp</title>
<polygon fill="pink" stroke="pink" points="959,-592 905,-592 905,-556 959,-556 959,-592"/>
<text text-anchor="middle" x="932" y="-570.3" font-family="Times New Roman,serif" font-size="14.00">FTP</text>
</g>
<!-- anz&#45;&gt;ftp -->
<g id="edge15" class="edge"><title>anz&#45;&gt;ftp</title>
<path fill="none" stroke="black" d="M816.033,-735.925C832.592,-714.135 862.107,-674.985 891.138,-634.548"/>
<polygon fill="black" stroke="black" points="894.154,-636.347 897.127,-626.178 888.461,-632.274 894.154,-636.347"/>
</g>
<!-- run -->
<g id="node9" class="node"><title>run</title>
<polygon fill="pink" stroke="pink" points="752,-772 698,-772 698,-736 752,-736 752,-772"/>
<text text-anchor="middle" x="725" y="-750.3" font-family="Times New Roman,serif" font-size="14.00">Runs</text>
</g>
<!-- run&#45;&gt;model -->
<g id="edge21" class="edge"><title>run&#45;&gt;model</title>
<path fill="none" stroke="black" d="M702.302,-735.968C698.002,-733.111 693.452,-730.323 689,-728 580.164,-671.204 514.336,-721.21 430,-632 423.915,-625.563 395.481,-529.444 375.95,-461.617"/>
<polygon fill="black" stroke="black" points="379.263,-460.473 373.137,-451.829 372.535,-462.407 379.263,-460.473"/>
</g>
<!-- run&#45;&gt;ftp -->
<g id="edge20" class="edge"><title>run&#45;&gt;ftp</title>
<path fill="none" stroke="black" d="M749.673,-735.935C788.612,-708.911 862.37,-657.323 889.473,-634.497"/>
<polygon fill="black" stroke="black" points="892.143,-636.8 897.196,-627.488 887.439,-631.616 892.143,-636.8"/>
</g>
<!-- rcg -->
<g id="node19" class="node"><title>rcg</title>
<polygon fill="pink" stroke="pink" points="752,-592 698,-592 698,-556 752,-556 752,-592"/>
<text text-anchor="middle" x="725" y="-570.3" font-family="Times New Roman,serif" font-size="14.00">RCG</text>
</g>
<!-- run&#45;&gt;rcg -->
<g id="edge22" class="edge"><title>run&#45;&gt;rcg</title>
<path fill="none" stroke="black" d="M725,-735.933C725,-704.966 725,-639.299 725,-602.129"/>
<polygon fill="black" stroke="black" points="728.5,-602.016 725,-592.016 721.5,-602.016 728.5,-602.016"/>
</g>
<!-- EPF&#45;&gt;model -->
<g id="edge9" class="edge"><title>EPF&#45;&gt;model</title>
<path fill="none" stroke="black" d="M226.807,-555.933C246.611,-531.454 283.956,-485.29 313.589,-448.661"/>
<polygon fill="black" stroke="black" points="316.6,-450.503 320.169,-440.528 311.158,-446.101 316.6,-450.503"/>
</g>
<!-- FPF&#45;&gt;model -->
<g id="edge8" class="edge"><title>FPF&#45;&gt;model</title>
<path fill="none" stroke="black" d="M102.943,-555.933C151.058,-525.454 252.242,-461.359 311.366,-423.907"/>
<polygon fill="black" stroke="black" points="313.551,-426.666 320.126,-418.358 309.805,-420.753 313.551,-426.666"/>
</g>
<!-- DAO -->
<g id="node12" class="node"><title>DAO</title>
<polygon fill="PaleGreen" stroke="PaleGreen" points="384,-232 330,-232 330,-196 384,-196 384,-232"/>
<text text-anchor="middle" x="357" y="-210.3" font-family="Times New Roman,serif" font-size="14.00">DAO</text>
</g>
<!-- DB2DAO -->
<g id="node13" class="node"><title>DB2DAO</title>
<polygon fill="gold" stroke="gold" points="350,-52 278,-52 278,-16 350,-16 350,-52"/>
<text text-anchor="middle" x="314" y="-30.3" font-family="Times New Roman,serif" font-size="14.00">DB2DAO</text>
</g>
<!-- DAO&#45;&gt;DB2DAO -->
<g id="edge2" class="edge"><title>DAO&#45;&gt;DB2DAO</title>
<path fill="none" stroke="black" d="M352.877,-195.933C345.396,-164.966 329.533,-99.2989 320.554,-62.1292"/>
<polygon fill="black" stroke="black" points="323.861,-60.9142 318.111,-52.0157 317.057,-62.558 323.861,-60.9142"/>
</g>
<!-- PGDAO -->
<g id="node14" class="node"><title>PGDAO</title>
<polygon fill="PaleGreen" stroke="PaleGreen" points="433.5,-52 368.5,-52 368.5,-16 433.5,-16 433.5,-52"/>
<text text-anchor="middle" x="401" y="-30.3" font-family="Times New Roman,serif" font-size="14.00">PGDAO</text>
</g>
<!-- DAO&#45;&gt;PGDAO -->
<g id="edge1" class="edge"><title>DAO&#45;&gt;PGDAO</title>
<path fill="none" stroke="black" d="M361.219,-195.933C368.874,-164.966 385.106,-99.2989 394.294,-62.1292"/>
<polygon fill="black" stroke="black" points="397.792,-62.5634 396.794,-52.0157 390.996,-60.8836 397.792,-62.5634"/>
</g>
<!-- model&#45;&gt;DAO -->
<g id="edge5" class="edge"><title>model&#45;&gt;DAO</title>
<path fill="none" stroke="black" d="M357,-375.933C357,-354.337 357,-315.865 357,-281.951"/>
<polygon fill="black" stroke="black" points="360.5,-281.596 357,-271.596 353.5,-281.596 360.5,-281.596"/>
</g>
<!-- xmlr&#45;&gt;model -->
<g id="edge13" class="edge"><title>xmlr&#45;&gt;model</title>
<path fill="none" stroke="black" d="M474.535,-555.933C457.731,-532.923 426.934,-490.755 401.08,-455.355"/>
<polygon fill="black" stroke="black" points="403.691,-452.996 394.967,-446.985 398.038,-457.125 403.691,-452.996"/>
</g>
<!-- xmf -->
<g id="node23" class="node"><title>xmf</title>
<polygon fill="grey" stroke="grey" points="629.5,-412 556.5,-412 556.5,-376 629.5,-376 629.5,-412"/>
<text text-anchor="middle" x="593" y="-390.3" font-family="Times New Roman,serif" font-size="14.00">WB XML</text>
</g>
<!-- xmlr&#45;&gt;xmf -->
<g id="edge18" class="edge"><title>xmlr&#45;&gt;xmf</title>
<path fill="none" stroke="black" d="M497.164,-555.933C515.842,-524.568 555.72,-457.602 577.691,-420.708"/>
<polygon fill="black" stroke="black" points="580.758,-422.398 582.867,-412.016 574.743,-418.817 580.758,-422.398"/>
</g>
<!-- xmlw&#45;&gt;model -->
<g id="edge14" class="edge"><title>xmlw&#45;&gt;model</title>
<path fill="none" stroke="black" d="M570.371,-555.933C531.951,-526.954 453.24,-467.588 402.906,-429.624"/>
<polygon fill="black" stroke="black" points="404.866,-426.719 394.775,-423.491 400.651,-432.307 404.866,-426.719"/>
</g>
<!-- xmlw&#45;&gt;xmf -->
<g id="edge19" class="edge"><title>xmlw&#45;&gt;xmf</title>
<path fill="none" stroke="black" d="M593,-555.933C593,-524.966 593,-459.299 593,-422.129"/>
<polygon fill="black" stroke="black" points="596.5,-422.016 593,-412.016 589.5,-422.016 596.5,-422.016"/>
</g>
<!-- vdp -->
<g id="node20" class="node"><title>vdp</title>
<polygon fill="pink" stroke="pink" points="902,-412 848,-412 848,-376 902,-376 902,-412"/>
<text text-anchor="middle" x="875" y="-390.3" font-family="Times New Roman,serif" font-size="14.00">VDP</text>
</g>
<!-- ftp&#45;&gt;vdp -->
<g id="edge23" class="edge"><title>ftp&#45;&gt;vdp</title>
<path fill="none" stroke="black" d="M926.535,-555.933C919.595,-534.261 907.213,-495.595 896.325,-461.595"/>
<polygon fill="black" stroke="black" points="899.534,-460.14 893.151,-451.683 892.868,-462.274 899.534,-460.14"/>
</g>
<!-- rcg&#45;&gt;vdp -->
<g id="edge16" class="edge"><title>rcg&#45;&gt;vdp</title>
<path fill="none" stroke="black" d="M743.125,-555.926C765.063,-534.826 802.785,-497.135 832.735,-459.926"/>
<polygon fill="black" stroke="black" points="835.545,-462.016 839,-452 830.053,-457.675 835.545,-462.016"/>
</g>
<!-- rcg&#45;&gt;xmf -->
<g id="edge17" class="edge"><title>rcg&#45;&gt;xmf</title>
<path fill="none" stroke="black" d="M712.343,-555.933C688.985,-524.435 639.003,-457.034 611.718,-420.24"/>
<polygon fill="black" stroke="black" points="614.386,-417.963 605.618,-412.016 608.764,-422.133 614.386,-417.963"/>
</g>
<!-- xlt -->
<g id="node21" class="node"><title>xlt</title>
<polygon fill="pink" stroke="pink" points="830,-412 776,-412 776,-376 830,-376 830,-412"/>
<text text-anchor="middle" x="803" y="-390.3" font-family="Times New Roman,serif" font-size="14.00">XLT</text>
</g>
<!-- jlt -->
<g id="node22" class="node"><title>jlt</title>
<polygon fill="pink" stroke="pink" points="758,-412 704,-412 704,-376 758,-376 758,-412"/>
<text text-anchor="middle" x="731" y="-390.3" font-family="Times New Roman,serif" font-size="14.00">JLT</text>
</g>
</g>
</svg>
